<?xml version="1.0" encoding="UTF-8"?>
<svg width="168px" height="110px" viewBox="0 0 168 110" version="1.1" xmlns="http://www.w3.org/2000/svg" xmlns:xlink="http://www.w3.org/1999/xlink">
    <title>EmptyState</title>
    <g id="Final-Pages" stroke="none" stroke-width="1" fill="none" fill-rule="evenodd">
        <g id="Activities-Loading" transform="translate(-637.000000, -444.000000)">
            <g id="Group-2-Copy-2" transform="translate(580.000000, 400.000000)">
                <g id="Loading" transform="translate(15.500000, 0.000000)">
                    <g id="Group-2" transform="translate(42.000000, 44.000000)">
                        <path d="M160,30 C163.865993,30 167,33.1340068 167,37 C167,40.8659932 163.865993,44 160,44 L120,44 C123.865993,44 127,47.1340068 127,51 C127,54.8659932 123.865993,58 120,58 L142,58 C145.865993,58 149,61.1340068 149,65 C149,68.8659932 145.865993,72 142,72 L131.826087,72 C126.951574,72 123,75.1340068 123,79 C123,81.5773288 125,83.9106622 129,86 C132.865993,86 136,89.1340068 136,93 C136,96.8659932 132.865993,100 129,100 L46,100 C42.1340068,100 39,96.8659932 39,93 C39,89.1340068 42.1340068,86 46,86 L7,86 C3.13400675,86 0,82.8659932 0,79 C0,75.1340068 3.13400675,72 7,72 L47,72 C50.8659932,72 54,68.8659932 54,65 C54,61.1340068 50.8659932,58 47,58 L22,58 C18.1340068,58 15,54.8659932 15,51 C15,47.1340068 18.1340068,44 22,44 L62,44 C58.1340068,44 55,40.8659932 55,37 C55,33.1340068 58.1340068,30 62,30 L160,30 Z M160,58 C163.865993,58 167,61.1340068 167,65 C167,68.8659932 163.865993,72 160,72 C156.134007,72 153,68.8659932 153,65 C153,61.1340068 156.134007,58 160,58 Z" id="Background" fill="#F2F6FA"></path>
                        <path d="M111,44.25 L70,44.25 C69.2406085,44.25 68.5531085,44.5578042 68.0554564,45.0554564 C67.5578042,45.5531085 67.25,46.2406085 67.25,47 L67.25,58.3028793 L65.5,58.25 C61.5771378,58.25 58.0320939,60.0042531 55.4635397,62.821377 C52.8551093,65.6822361 51.25,69.6366582 51.25,74 C51.25,78.3633418 52.8551093,82.3177639 55.4635397,85.178623 C58.0320939,87.9957469 61.5771378,89.75 65.9565792,89.7420769 L67.25,89.6971207 L67.25,108 C67.25,108.207107 67.3339466,108.394607 67.4696699,108.53033 C67.6053932,108.666053 67.7928932,108.75 68,108.75 L113,108.75 C113.207107,108.75 113.394607,108.666053 113.53033,108.53033 C113.666053,108.394607 113.75,108.207107 113.75,108 L113.75,47 C113.75,46.2406085 113.442196,45.5531085 112.944544,45.0554564 C112.446892,44.5578042 111.759392,44.25 111,44.25 Z" id="Path" stroke="#75A4FE" stroke-width="2.5" fill="#FFFFFF"></path>
                        <path d="M65.5,63 C60.0269143,63 55.7666667,68.0062818 55.7666667,74 C55.7666667,79.9937182 60.0269143,85 65.5,85 C65.7341652,85 65.9675911,84.9906432 66.1999302,84.9720028 L68.5,84.7874704 L68.5,63.2125296 L66.1999302,63.0279972 C65.9675911,63.0093568 65.7341652,63 65.5,63 Z M65.5,65.5 L65.7510734,65.5050246 L66,65.5199899 L66,82.4800101 C65.8347953,82.4932643 65.668067,82.5 65.5,82.5 C61.5051403,82.5 58.2666667,78.6944204 58.2666667,74 C58.2666667,69.3055796 61.5051403,65.5 65.5,65.5 Z" id="Path" fill="#53B3E0" fill-rule="nonzero"></path>
                        <path d="M111,43 C113.209139,43 115,44.790861 115,47 L115,108 C115,109.104569 114.104569,110 113,110 L68,110 C66.8954305,110 66,109.104569 66,108 L66,90.9913225 L65.7504792,90.9978252 L65.5,91 C56.9395864,91 50,83.3888407 50,74 C50,64.7216162 56.7772625,57.1793321 65.1985494,57.0031508 L65.5,57 C65.667299,57 65.8339789,57.002907 66,57.0086775 L66,47 C66,44.790861 67.790861,43 70,43 L111,43 Z M111,45.5 L70,45.5 C69.2203039,45.5 68.5795513,46.0948881 68.5068666,46.85554 L68.5,47 L68.5,59.5970811 L65.9131585,59.5071688 C65.775763,59.5023932 65.6380345,59.5 65.5,59.5 C58.3744754,59.5 52.5,65.942973 52.5,74 C52.5,82.057027 58.3744754,88.5 65.5,88.5 L65.7068189,88.4982064 L68.5,88.4029189 L68.5,107.5 L112.5,107.5 L112.5,47 C112.5,46.2203039 111.905112,45.5795513 111.14446,45.5068666 L111,45.5 Z" id="Shape" fill="#53B3E0" fill-rule="nonzero"></path>
                        <path d="M106,74.9316406 C106.647209,74.9316406 107.179534,75.4235153 107.243546,76.0538354 L107.25,76.1816406 L107.25,80.9248047 C107.25,81.6151606 106.690356,82.1748047 106,82.1748047 C105.352791,82.1748047 104.820466,81.68293 104.756454,81.0526099 L104.75,80.9248047 L104.75,76.1816406 C104.75,75.4912847 105.309644,74.9316406 106,74.9316406 Z M106,50.9316406 C106.647209,50.9316406 107.179534,51.4235153 107.243546,52.0538354 L107.25,52.1816406 L107.25,70.5 C107.25,71.1903559 106.690356,71.75 106,71.75 C105.352791,71.75 104.820466,71.2581253 104.756454,70.6278052 L104.75,70.5 L104.75,52.1816406 C104.75,51.4912847 105.309644,50.9316406 106,50.9316406 Z" id="line" fill="#8ECEED" fill-rule="nonzero"></path>
                        <path d="M39,101.25 C39.6903559,101.25 40.25,101.809644 40.25,102.5 C40.25,103.147209 39.7581253,103.679534 39.1278052,103.743546 L39,103.75 L32.1279297,103.75 C31.4375738,103.75 30.8779297,103.190356 30.8779297,102.5 C30.8779297,101.852791 31.3698044,101.320466 32.0001244,101.256454 L32.1279297,101.25 L39,101.25 Z M149,101.25 C149.690356,101.25 150.25,101.809644 150.25,102.5 C150.25,103.147209 149.758125,103.679534 149.127805,103.743546 L149,103.75 L146.12793,103.75 C145.437574,103.75 144.87793,103.190356 144.87793,102.5 C144.87793,101.852791 145.369804,101.320466 146.000124,101.256454 L146.12793,101.25 L149,101.25 Z M141.427734,101.25 C142.11809,101.25 142.677734,101.809644 142.677734,102.5 C142.677734,103.147209 142.18586,103.679534 141.55554,103.743546 L141.427734,103.75 L119,103.75 C118.309644,103.75 117.75,103.190356 117.75,102.5 C117.75,101.852791 118.241875,101.320466 118.872195,101.256454 L119,101.25 L141.427734,101.25 Z M66.4541016,101.25 C67.1444575,101.25 67.7041016,101.809644 67.7041016,102.5 C67.7041016,103.147209 67.2122269,103.679534 66.5819068,103.743546 L66.4541016,103.75 L45,103.75 C44.3096441,103.75 43.75,103.190356 43.75,102.5 C43.75,101.852791 44.2418747,101.320466 44.8721948,101.256454 L45,101.25 L66.4541016,101.25 Z" id="ground_line" fill="#53B3E0" fill-rule="nonzero"></path>
                        <path d="M91.9437598,1.33152661 C92.3129475,0.748181263 93.085128,0.574572157 93.6684734,0.943759817 C94.2518187,1.31294748 94.4254278,2.08512805 94.0562402,2.66847339 C91.5052953,6.69916564 90.2499991,10.1512276 90.2499991,13 C90.2499991,14.8288808 90.7132737,16.1634654 91.9856952,18.4752971 L92.4164432,19.2453903 C94.2267124,22.4645013 94.9038086,24.2747444 94.9038086,27.0629883 C94.9038086,30.4932948 93.1970436,33.8303597 89.8706099,37.05907 C89.3752322,37.5398946 88.5838639,37.528097 88.1030394,37.0327193 C87.6222148,36.5373416 87.6340124,35.7459733 88.1293901,35.2651487 C91.0080345,32.4710726 92.4038086,29.7420568 92.4038086,27.0629883 C92.4038086,25.0037103 91.9408858,23.5944615 90.619365,21.1610917 L89.992385,20.0350135 C88.3846651,17.1676005 87.7499991,15.4531625 87.7499991,13 C87.7499991,9.60918902 89.1613714,5.7279177 91.9437598,1.33152661 Z" id="line" fill="#8ECEED" fill-rule="nonzero"></path>
                        <path d="M81.1954193,11.76537 C81.8772866,11.8732971 82.3425571,12.513552 82.23463,13.1954193 C81.9122011,15.2324773 82.1849867,16.3517614 83.2710867,18.3519866 L83.527332,18.8150002 C84.7810285,21.0599928 85.25,22.355126 85.25,24.4745806 C85.25,27.2871207 84.1437588,30.062097 81.977373,32.7792573 C81.5470011,33.3190455 80.7605309,33.407745 80.2207427,32.977373 C79.6809545,32.5470011 79.592255,31.7605309 80.022627,31.2207427 C81.8562412,28.9209567 82.75,26.6789867 82.75,24.4745806 C82.75,22.9713583 82.4446355,22.0445373 81.5151825,20.3425838 L81.2570872,19.8771828 C79.7831843,17.2361989 79.3225828,15.6020441 79.76537,12.8045807 C79.8665516,12.1653301 80.4355995,11.7164478 81.0681766,11.7517637 L81.1954193,11.76537 Z" id="line" fill="#8ECEED" fill-rule="nonzero"></path>
                        <path d="M98.6291677,10.0236236 C98.8779706,9.37966056 99.6017004,9.05931992 100.245663,9.30812279 C100.889627,9.55692566 101.209967,10.2806555 100.961164,10.9246185 C100.004615,13.4004024 100.139753,15.0053247 100.925617,16.670641 L101.089599,17.008043 C101.259112,17.3467944 101.450208,17.6993263 101.707786,18.1532264 L102.681071,19.8509654 C102.730904,19.9409951 102.777768,20.0274301 102.842044,20.1461844 C103.784808,21.8880063 104.25,23.254395 104.25,24.7578125 C104.25,28.1370614 103.089076,31.3781341 100.79732,34.4521974 C100.384697,35.0056718 99.6015211,35.1198548 99.0480467,34.7072322 C98.4945723,34.2946096 98.3803894,33.5114332 98.793012,32.9579588 C100.774369,30.3002513 101.75,27.5764803 101.75,24.7578125 C101.75,23.8222958 101.450359,22.8798069 100.790391,21.6127762 L100.364224,20.8316289 L99.5241849,19.370745 C99.1561886,18.7218875 98.9081198,18.2533592 98.6647148,17.7375621 C97.6030639,15.4878276 97.408905,13.1819638 98.6291677,10.0236236 Z" id="line" fill="#8ECEED" fill-rule="nonzero"></path>
                    </g>
                </g>
            </g>
        </g>
    </g>
</svg>
