<svg width="168" height="110" xmlns="http://www.w3.org/2000/svg"><g fill="none" fill-rule="evenodd"><path d="M160.5 30a7 7 0 010 14h-40a7 7 0 010 14h22a7 7 0 010 14h-10.174c-4.874 0-8.826 3.134-8.826 7 0 2.577 2 4.91 6 7a7 7 0 010 14h-83a7 7 0 010-14h-39a7 7 0 010-14h40a7 7 0 000-14h-25a7 7 0 010-14h40a7 7 0 010-14h98zm0 28a7 7 0 110 14 7 7 0 010-14z" fill="#F2F6FA"/><path d="M111.5 44.25h-41c-.76 0-1.447.308-1.945.805A2.741 2.741 0 0067.75 47v11.303L66 58.25c-3.923 0-7.468 1.754-10.036 4.571C53.355 65.682 51.75 69.637 51.75 74s1.605 8.318 4.214 11.179c2.568 2.817 6.113 4.571 10.493 4.563l1.293-.045V108a.748.748 0 00.75.75h45a.748.748 0 00.75-.75V47c0-.76-.308-1.447-.805-1.945a2.741 2.741 0 00-1.945-.805z" stroke="#75A4FE" stroke-width="2.5" fill="#FFF"/><path d="M66 63c-5.473 0-9.733 5.006-9.733 11S60.527 85 66 85c.234 0 .468-.01.7-.028l2.3-.185V63.213l-2.3-.185A8.75 8.75 0 0066 63zm0 2.5l.251.005.249.015v16.96a6.25 6.25 0 01-.5.02c-3.995 0-7.233-3.806-7.233-8.5s3.238-8.5 7.233-8.5z" fill="#53B3E0" fill-rule="nonzero"/><path d="M111.5 43a4 4 0 014 4v61a2 2 0 01-2 2h-45a2 2 0 01-2-2V90.991l-.25.007L66 91c-8.56 0-15.5-7.611-15.5-17 0-9.278 6.777-16.82 15.199-16.997L66 57c.167 0 .334.003.5.009V47a4 4 0 014-4h41zm0 2.5h-41a1.5 1.5 0 00-1.493 1.356L69 47v12.597l-2.587-.09A11.893 11.893 0 0066 59.5c-7.126 0-13 6.443-13 14.5s5.874 14.5 13 14.5l.207-.002L69 88.403V107.5h44V47a1.5 1.5 0 00-1.356-1.493l-.144-.007z" fill="#53B3E0" fill-rule="nonzero"/><path d="M106.5 74.932c.647 0 1.18.492 1.244 1.122l.006.128v4.743a1.25 1.25 0 01-2.494.128l-.006-.128v-4.743c0-.69.56-1.25 1.25-1.25zm0-24c.647 0 1.18.492 1.244 1.122l.006.128V70.5a1.25 1.25 0 01-2.494.128l-.006-.128V52.182c0-.69.56-1.25 1.25-1.25z" fill="#8ECEED" fill-rule="nonzero"/><path d="M39.5 101.25a1.25 1.25 0 01.128 2.494l-.128.006h-6.872a1.25 1.25 0 01-.128-2.494l.128-.006H39.5zm110 0a1.25 1.25 0 01.128 2.494l-.128.006h-2.872a1.25 1.25 0 01-.128-2.494l.128-.006h2.872zm-7.572 0a1.25 1.25 0 01.128 2.494l-.128.006H119.5a1.25 1.25 0 01-.128-2.494l.128-.006h22.428zm-74.974 0a1.25 1.25 0 01.128 2.494l-.128.006H45.5a1.25 1.25 0 01-.128-2.494l.128-.006h21.454z" fill="#53B3E0" fill-rule="nonzero"/><path d="M92.444 1.332a1.25 1.25 0 012.112 1.336C92.006 6.7 90.75 10.151 90.75 13c0 1.829.463 3.163 1.736 5.475l.43.77c1.81 3.22 2.488 5.03 2.488 7.818 0 3.43-1.707 6.767-5.033 9.996a1.25 1.25 0 11-1.742-1.794c2.879-2.794 4.275-5.523 4.275-8.202 0-2.06-.463-3.469-1.785-5.902l-.627-1.126C88.885 17.168 88.25 15.453 88.25 13c0-3.39 1.411-7.272 4.194-11.668zM81.695 11.765a1.25 1.25 0 011.04 1.43c-.323 2.037-.05 3.157 1.036 5.157l.256.463c1.254 2.245 1.723 3.54 1.723 5.66 0 2.812-1.106 5.587-3.273 8.304a1.25 1.25 0 11-1.954-1.558c1.833-2.3 2.727-4.542 2.727-6.746 0-1.504-.305-2.43-1.235-4.132l-.258-.466c-1.474-2.64-1.934-4.275-1.492-7.072a1.25 1.25 0 011.303-1.053l.127.013zm17.435-1.741a1.25 1.25 0 112.331.9c-.956 2.476-.821 4.081-.035 5.747l.164.337c.17.339.36.691.618 1.145l.973 1.698.161.295c.943 1.742 1.408 3.108 1.408 4.612 0 3.38-1.16 6.62-3.453 9.694a1.25 1.25 0 11-2.004-1.494c1.981-2.658 2.957-5.382 2.957-8.2 0-.936-.3-1.878-.96-3.145l-.426-.781-.84-1.461a23.4 23.4 0 01-.86-1.633c-1.06-2.25-1.255-4.556-.035-7.714z" fill="#8ECEED" fill-rule="nonzero"/></g></svg>