<svg width="168" height="101" xmlns="http://www.w3.org/2000/svg"><g fill="none" fill-rule="evenodd"><path d="M160.142 14.854c3.857 0 6.984 3.104 6.984 6.932 0 3.829-3.127 6.932-6.984 6.932h-39.91c3.856 0 6.983 3.104 6.983 6.932 0 3.829-3.127 6.933-6.984 6.933h21.95c3.858 0 6.985 3.103 6.985 6.932 0 3.828-3.127 6.932-6.984 6.932H132.03c-4.864 0-8.807 3.103-8.807 6.932 0 2.552 1.996 4.863 5.987 6.932 3.857 0 6.984 3.103 6.984 6.932 0 3.828-3.127 6.932-6.984 6.932H46.397c-3.857 0-6.984-3.104-6.984-6.932 0-3.829 3.127-6.932 6.984-6.932H7.484C3.627 70.31.5 67.207.5 63.379c0-3.829 3.127-6.932 6.984-6.932h39.91c3.858 0 6.985-3.104 6.985-6.932 0-3.829-3.127-6.932-6.984-6.932H22.45c-3.858 0-6.985-3.104-6.985-6.933 0-3.828 3.127-6.932 6.985-6.932h39.91c-3.857 0-6.984-3.103-6.984-6.932 0-3.828 3.127-6.932 6.984-6.932h97.78zm0 27.729c3.857 0 6.984 3.103 6.984 6.932 0 3.828-3.127 6.932-6.984 6.932-3.858 0-6.985-3.104-6.985-6.932 0-3.829 3.127-6.932 6.985-6.932z" fill="#F2F6FA"/><path d="M43.324 19.753l4.88-.549a1.242 1.242 0 011.378 1.091 1.242 1.242 0 01-.976 1.35l-.126.02-4.855.545a.747.747 0 00-.657.727l.005.101 8.928 72.715a2.732 2.732 0 002.89 2.384l.166-.016 58.429-7.174a2.735 2.735 0 002.406-2.872l-.015-.165-.825-6.723-9.219-67.183a1.242 1.242 0 011.067-1.396 1.244 1.244 0 011.38.933l.024.124 9.221 67.2.828 6.74c.341 2.78-1.594 5.317-4.352 5.769l-.214.03-58.429 7.175c-2.8.343-5.352-1.572-5.802-4.31l-.03-.212-8.929-72.715c-.216-1.764 1.049-3.371 2.827-3.59zm8.8-.989l4.577-.513a1.242 1.242 0 011.378 1.09 1.242 1.242 0 01-.976 1.35l-.126.02-4.577.514a1.242 1.242 0 01-1.377-1.091 1.243 1.243 0 011.101-1.37z" fill="#8ECEED"/><path d="M104.407 18.092l8.4 60.887.756 6.108a3.574 3.574 0 01-3.107 3.995L58.132 95.46a3.59 3.59 0 01-3.988-3.13l-8.13-65.71a2 2 0 011.744-2.231l6.464-.788" fill="#CEF"/><path d="M64.038 0h45.451a4 4 0 012.817 1.16l13.399 13.29a4 4 0 011.183 2.84v61.894a4 4 0 01-4 4h-58.85a4 4 0 01-4-4V4a4 4 0 014-4z" fill="#FFF"/><path d="M109.484 0c1.058 0 2.073.417 2.821 1.16l13.413 13.304a3.946 3.946 0 011.17 2.802v61.957c0 2.188-1.787 3.961-3.991 3.961H64.029c-2.204 0-3.99-1.773-3.99-3.96V3.96c0-2.188 1.786-3.961 3.99-3.961h45.455zm0 2.476H64.029c-.778 0-1.417.589-1.49 1.342l-.006.143v75.262a1.49 1.49 0 001.352 1.479l.144.007h58.868c.778 0 1.417-.59 1.49-1.343l.007-.143V17.266c0-.345-.121-.678-.34-.942l-.099-.109L110.542 2.91a1.501 1.501 0 00-.91-.427l-.148-.007z" fill="#53B3E0"/><path d="M109.926 1.142c.646 0 1.177.487 1.24 1.11l.007.128v11.484c0 .91.706 1.655 1.603 1.727l.143.006h7.916c.69 0 1.247.554 1.247 1.238 0 .64-.49 1.168-1.12 1.231l-.127.007h-7.916c-2.273 0-4.128-1.775-4.235-4.005l-.005-.204V2.38c0-.684.558-1.238 1.247-1.238z" fill="#53B3E0"/><path d="M97.953 66.102c.689 0 1.247.554 1.247 1.238 0 .64-.49 1.168-1.12 1.231l-.127.007H72.011a1.243 1.243 0 01-1.247-1.238c0-.641.49-1.168 1.12-1.232l.127-.006h25.942zm16.962-12.874c.689 0 1.247.554 1.247 1.238 0 .64-.49 1.168-1.12 1.231l-.127.007H72.011a1.243 1.243 0 01-1.247-1.238c0-.64.49-1.168 1.12-1.231l.127-.007h42.904zm0-12.874c.689 0 1.247.555 1.247 1.238 0 .641-.49 1.168-1.12 1.232l-.127.006H72.011a1.243 1.243 0 01-1.247-1.238c0-.64.49-1.168 1.12-1.231l.127-.007h42.904zm0-12.873c.689 0 1.247.554 1.247 1.237 0 .641-.49 1.169-1.12 1.232l-.127.006H72.011a1.243 1.243 0 01-1.247-1.238c0-.64.49-1.168 1.12-1.231l.127-.006h42.904zM97.953 15.597c.689 0 1.247.554 1.247 1.238 0 .64-.49 1.168-1.12 1.231l-.127.007H72.011a1.243 1.243 0 01-1.247-1.238c0-.641.49-1.168 1.12-1.232l.127-.006h25.942z" fill="#8ECEED"/></g></svg>