<?xml version="1.0" encoding="UTF-8"?>
<svg width="168px" height="101px" viewBox="0 0 168 101" version="1.1" xmlns="http://www.w3.org/2000/svg" xmlns:xlink="http://www.w3.org/1999/xlink">
    <title>EmptyState</title>
    <g id="Final-Pages" stroke="none" stroke-width="1" fill="none" fill-rule="evenodd">
        <g id="Activities-Empty-Filters" transform="translate(-641.000000, -465.000000)">
            <g id="Group-2" transform="translate(557.000000, 416.000000)">
                <g id="NoDocuments" transform="translate(37.500000, 0.000000)">
                    <g id="Group-2" transform="translate(47.000000, 49.000000)">
                        <path d="M159.641524,14.8543689 C163.498855,14.8543689 166.62584,17.9579484 166.62584,21.7864078 C166.62584,25.6148671 163.498855,28.7184466 159.641524,28.7184466 L119.731143,28.7184466 C123.588474,28.7184466 126.715459,31.8220261 126.715459,35.6504854 C126.715459,39.4789448 123.588474,42.5825243 119.731143,42.5825243 L141.681852,42.5825243 C145.539184,42.5825243 148.666169,45.6861038 148.666169,49.5145631 C148.666169,53.3430224 145.539184,56.4466019 141.681852,56.4466019 L131.530734,56.4466019 C126.667142,56.4466019 122.724421,59.5501814 122.724421,63.3786408 C122.724421,65.930947 124.71994,68.2416266 128.710978,70.3106796 C132.56831,70.3106796 135.695295,73.4142591 135.695295,77.2427184 C135.695295,81.0711778 132.56831,84.1747573 128.710978,84.1747573 L45.896938,84.1747573 C42.0396064,84.1747573 38.9126214,81.0711778 38.9126214,77.2427184 C38.9126214,73.4142591 42.0396064,70.3106796 45.896938,70.3106796 L6.98431665,70.3106796 C3.12698508,70.3106796 0,67.2071001 0,63.3786408 C0,59.5501814 3.12698508,56.4466019 6.98431665,56.4466019 L46.8946975,56.4466019 C50.7520291,56.4466019 53.8790142,53.3430224 53.8790142,49.5145631 C53.8790142,45.6861038 50.7520291,42.5825243 46.8946975,42.5825243 L21.9507095,42.5825243 C18.0933779,42.5825243 14.9663928,39.4789448 14.9663928,35.6504854 C14.9663928,31.8220261 18.0933779,28.7184466 21.9507095,28.7184466 L61.8610904,28.7184466 C58.0037588,28.7184466 54.8767737,25.6148671 54.8767737,21.7864078 C54.8767737,17.9579484 58.0037588,14.8543689 61.8610904,14.8543689 L159.641524,14.8543689 Z M159.641524,42.5825243 C163.498855,42.5825243 166.62584,45.6861038 166.62584,49.5145631 C166.62584,53.3430224 163.498855,56.4466019 159.641524,56.4466019 C155.784192,56.4466019 152.657207,53.3430224 152.657207,49.5145631 C152.657207,45.6861038 155.784192,42.5825243 159.641524,42.5825243 Z" id="Background" fill="#F2F6FA"></path>
                        <path d="M47.5663466,15.6178479 L52.4779299,15.6686938 C53.1667012,15.6758642 53.7192041,16.2358571 53.7119797,16.9194729 C53.7052067,17.5603628 53.2088904,18.082382 52.5793473,18.1392227 L52.4517678,18.1442858 L47.5663466,18.0935761 C47.1875015,18.0935761 46.8744093,18.3729906 46.8248582,18.735512 L46.8180269,18.8362945 L46.8180269,92.0970097 C46.8180269,93.5453422 47.9571735,94.7296042 49.3947186,94.8153406 L49.5618656,94.8203107 L108.429677,94.8203107 C109.888932,94.8203107 111.082126,93.6896906 111.168509,92.2629056 L111.173516,92.0970097 L111.17364,85.3236018 L110.211202,17.5177097 C110.201499,16.8341241 110.751968,16.2721616 111.440709,16.2625314 C112.086404,16.2535031 112.624397,16.7331282 112.697118,17.3563739 L112.705353,17.4828357 L113.667915,85.3061648 L113.667915,92.0970097 C113.667915,94.8965706 111.438472,97.1793148 108.645597,97.2917023 L108.429677,97.2960388 L49.5618656,97.2960388 C46.7411919,97.2960388 44.4412324,95.0832836 44.3279974,92.3113133 L44.3236281,92.0970097 L44.3236281,18.8362945 C44.3236281,17.0587955 45.7754426,15.6178479 47.5663466,15.6178479 Z M56.4219993,15.7096654 L61.0272244,15.7575051 C61.7159959,15.7646601 62.2685114,16.3246407 62.2613722,17.0082567 C62.254544,17.6491468 61.7582394,18.1711769 61.1286976,18.2280317 L61.0011183,18.2330977 L56.3958932,18.1852579 C55.7071217,18.1781029 55.1546061,17.6181223 55.1617454,16.9345063 C55.1690241,16.2508903 55.7332278,15.7025103 56.4219993,15.7096654 Z" id="Shape" fill="#8ECEED" transform="translate(78.995772, 56.456943) rotate(-7.000000) translate(-78.995772, -56.456943) "></path>
                        <path d="M108.421584,21.3676443 L109.339428,82.8243971 L109.345044,88.9792897 C109.346851,90.9621067 107.748332,92.5680488 105.77465,92.5662631 L53.0630672,92.5185314 C51.0893857,92.5167443 49.4879345,90.9079047 49.4861259,88.9250876 L49.425734,22.714775 C49.4247265,21.610206 50.3193399,20.7139591 51.4239089,20.7129516 C51.4251207,20.7129505 51.4263324,20.7129505 51.4275442,20.7129516 L57.9401565,20.7188488 L57.9401565,20.7188488" id="Rectangle" fill="#CCEEFF" transform="translate(79.384475, 56.638700) rotate(-7.000000) translate(-79.384475, -56.638700) "></path>
                        <path d="M63.5381815,0 L108.988996,0 C110.044227,-1.93842855e-16 111.05671,0.416974845 111.805899,1.16009609 L125.204973,14.4506511 C125.962164,15.20171 126.388069,16.2240522 126.388069,17.290555 L126.388069,79.184466 C126.388069,81.393605 124.597208,83.184466 122.388069,83.184466 L63.5381815,83.184466 C61.3290425,83.184466 59.5381815,81.393605 59.5381815,79.184466 L59.5381815,4 C59.5381815,1.790861 61.3290425,4.05812251e-16 63.5381815,0 Z" id="Rectangle" fill="#FFFFFF"></path>
                        <path d="M108.983912,0 C110.041973,0 111.056735,0.416999445 111.805129,1.15933193 L125.218248,14.4638188 C125.967247,15.2067517 126.388069,16.2146609 126.388069,17.2656519 L126.388069,79.223301 C126.388069,81.410992 124.601221,83.184466 122.397031,83.184466 L63.5292196,83.184466 C61.3250301,83.184466 59.5381815,81.410992 59.5381815,79.223301 L59.5381815,3.96116505 C59.5381815,1.773474 61.3250301,0 63.5292196,0 L108.983912,0 Z M108.983912,2.47572816 L63.5292196,2.47572816 C62.7512703,2.47572816 62.1119534,3.06484063 62.0394315,3.81810756 L62.0325803,3.96116505 L62.0325803,79.223301 C62.0325803,79.9954272 62.6261355,80.6299589 63.3850832,80.701938 L63.5292196,80.7087379 L122.397031,80.7087379 C123.174981,80.7087379 123.814298,80.1196254 123.886819,79.3663585 L123.893671,79.223301 L123.893671,17.2656519 C123.893671,16.9207955 123.772849,16.5883082 123.554479,16.3239347 L123.454988,16.2149645 L110.041868,2.91047763 C109.796302,2.66689978 109.474258,2.5167281 109.131777,2.48299109 L108.983912,2.47572816 Z" id="Rectangle" fill="#53B3E0"></path>
                        <path d="M109.426158,1.14163949 C110.071916,1.14163949 110.603049,1.62873867 110.666918,2.25293915 L110.673357,2.37950356 L110.673357,13.8640777 C110.673357,14.7733368 111.378883,15.5190448 112.276231,15.5913425 L112.419436,15.5970874 L120.335255,15.5970874 C121.024064,15.5970874 121.582454,16.151298 121.582454,16.8349515 C121.582454,17.4758766 121.091682,18.0030336 120.462774,18.0664246 L120.335255,18.0728155 L112.419436,18.0728155 C110.146366,18.0728155 108.29102,16.2977115 108.183848,14.0679948 L108.178958,13.8640777 L108.178958,2.37950356 C108.178958,1.69585011 108.737348,1.14163949 109.426158,1.14163949 Z" id="Shape" fill="#53B3E0"></path>
                        <path d="M97.4530433,66.1019417 C98.1418525,66.1019417 98.7002427,66.6561524 98.7002427,67.3398058 C98.7002427,67.9807309 98.2094701,68.5078879 97.5805622,68.571279 L97.4530433,68.5776699 L71.5112957,68.5776699 C70.8224865,68.5776699 70.2640963,68.0234593 70.2640963,67.3398058 C70.2640963,66.6988807 70.754869,66.1717237 71.3837768,66.1083327 L71.5112957,66.1019417 L97.4530433,66.1019417 Z M114.414955,53.2281553 C115.103764,53.2281553 115.662155,53.782366 115.662155,54.4660194 C115.662155,55.1069445 115.171382,55.6341015 114.542474,55.6974925 L114.414955,55.7038835 L71.5112957,55.7038835 C70.8224865,55.7038835 70.2640963,55.1496729 70.2640963,54.4660194 C70.2640963,53.8250943 70.754869,53.2979373 71.3837768,53.2345463 L71.5112957,53.2281553 L114.414955,53.2281553 Z M114.414955,40.3543689 C115.103764,40.3543689 115.662155,40.9085796 115.662155,41.592233 C115.662155,42.2331581 115.171382,42.7603151 114.542474,42.8237061 L114.414955,42.8300971 L71.5112957,42.8300971 C70.8224865,42.8300971 70.2640963,42.2758865 70.2640963,41.592233 C70.2640963,40.9513079 70.754869,40.4241509 71.3837768,40.3607599 L71.5112957,40.3543689 L114.414955,40.3543689 Z M114.414955,27.4805825 C115.103764,27.4805825 115.662155,28.0347931 115.662155,28.7184466 C115.662155,29.3593717 115.171382,29.8865287 114.542474,29.9499197 L114.414955,29.9563107 L71.5112957,29.9563107 C70.8224865,29.9563107 70.2640963,29.4021001 70.2640963,28.7184466 C70.2640963,28.0775215 70.754869,27.5503645 71.3837768,27.4869735 L71.5112957,27.4805825 L114.414955,27.4805825 Z M97.4530433,15.5970874 C98.1418525,15.5970874 98.7002427,16.151298 98.7002427,16.8349515 C98.7002427,17.4758766 98.2094701,18.0030336 97.5805622,18.0664246 L97.4530433,18.0728155 L71.5112957,18.0728155 C70.8224865,18.0728155 70.2640963,17.5186049 70.2640963,16.8349515 C70.2640963,16.1940263 70.754869,15.6668693 71.3837768,15.6034783 L71.5112957,15.5970874 L97.4530433,15.5970874 Z" id="lines" fill="#8ECEED"></path>
                    </g>
                </g>
            </g>
        </g>
    </g>
</svg>
