<?xml version="1.0" encoding="UTF-8"?>
<svg width="168px" height="88px" viewBox="0 0 168 88" version="1.1" xmlns="http://www.w3.org/2000/svg" xmlns:xlink="http://www.w3.org/1999/xlink">
    <title>EmptyState</title>
    <g id="Final-Pages" stroke="none" stroke-width="1" fill="none" fill-rule="evenodd">
        <g id="Activities-Empty-Search" transform="translate(-637.000000, -472.000000)">
            <g id="Group-2-Copy" transform="translate(595.000000, 416.000000)">
                <g id="NoSearch" transform="translate(0.500000, 0.000000)">
                    <g id="Group-6" transform="translate(42.000000, 56.000000)">
                        <path d="M160,1 C163.865993,1 167,4.13400675 167,8 C167,11.8659932 163.865993,15 160,15 L120,15 C123.865993,15 127,18.1340068 127,22 C127,25.8659932 123.865993,29 120,29 L142,29 C145.865993,29 149,32.1340068 149,36 C149,39.8659932 145.865993,43 142,43 L131.826087,43 C126.951574,43 123,46.1340068 123,50 C123,52.5773288 125,54.9106622 129,57 C132.865993,57 136,60.1340068 136,64 C136,67.8659932 132.865993,71 129,71 L46,71 C42.1340068,71 39,67.8659932 39,64 C39,60.1340068 42.1340068,57 46,57 L7,57 C3.13400675,57 0,53.8659932 0,50 C0,46.1340068 3.13400675,43 7,43 L47,43 C50.8659932,43 54,39.8659932 54,36 C54,32.1340068 50.8659932,29 47,29 L22,29 C18.1340068,29 15,25.8659932 15,22 C15,18.1340068 18.1340068,15 22,15 L62,15 C58.1340068,15 55,11.8659932 55,8 C55,4.13400675 58.1340068,1 62,1 L160,1 Z M160,29 C163.865993,29 167,32.1340068 167,36 C167,39.8659932 163.865993,43 160,43 C156.134007,43 153,39.8659932 153,36 C153,32.1340068 156.134007,29 160,29 Z" id="Background" fill="#F2F6FA"></path>
                        <g id="Search" transform="translate(4.000000, 0.000000)">
                            <path d="M69.5,8 C54.3121694,8 42,20.3121694 42,35.5 C42,50.6878306 54.3121694,63 69.5,63 C84.6878306,63 97,50.6878306 97,35.5 C97,20.3121694 84.6878306,8 69.5,8 Z" id="Path" fill="#FFFFFF" fill-rule="nonzero"></path>
                            <path d="M97.8838835,61.1161165 L102.120739,65.3533851 C104.485436,63.8040666 107.6903,64.0684077 109.768301,66.1464087 L120.853591,77.2316989 C123.234461,79.6125688 123.234461,83.4727215 120.853591,85.8535913 C118.472721,88.2344612 114.612569,88.2344612 112.231699,85.8535913 L101.146409,74.7683011 C99.0684077,72.6903002 98.8040666,69.4854355 100.353385,67.1207394 L96.1161165,62.8838835 L97.8838835,61.1161165 Z M103.65175,67.3458129 L102.345813,68.6517502 C101.579934,69.9695935 101.721017,71.6698211 102.769062,72.8467858 L102.914176,73.0005341 L113.999466,84.0858244 C115.404025,85.4903835 117.681265,85.4903835 119.085824,84.0858244 C120.440221,82.7314281 120.488592,80.5655719 119.230938,79.1532142 L119.085824,78.9994659 L108.000534,67.9141756 C106.821708,66.7353492 105.028164,66.545895 103.65175,67.3458129 Z M69.5,0.75 C88.6918951,0.75 104.25,16.3081049 104.25,35.5 C104.25,54.6918951 88.6918951,70.25 69.5,70.25 C50.3081049,70.25 34.75,54.6918951 34.75,35.5 C34.75,16.3081049 50.3081049,0.75 69.5,0.75 Z M69.5,3.25 C51.6888168,3.25 37.25,17.6888168 37.25,35.5 C37.25,53.3111832 51.6888168,67.75 69.5,67.75 C87.3111832,67.75 101.75,53.3111832 101.75,35.5 C101.75,17.6888168 87.3111832,3.25 69.5,3.25 Z M69.5,7.75 C84.8259018,7.75 97.25,20.1740982 97.25,35.5 C97.25,50.8259018 84.8259018,63.25 69.5,63.25 C54.1740982,63.25 41.75,50.8259018 41.75,35.5 C41.75,20.1740982 54.1740982,7.75 69.5,7.75 Z M69.5,10.25 C55.5548101,10.25 44.25,21.5548101 44.25,35.5 C44.25,49.4451899 55.5548101,60.75 69.5,60.75 C83.4451899,60.75 94.75,49.4451899 94.75,35.5 C94.75,21.5548101 83.4451899,10.25 69.5,10.25 Z" id="Combined-Shape" fill="#53B3E0"></path>
                            <path d="M33.1757812,56.5273438 C33.8661372,56.5273438 34.4257812,57.0869878 34.4257812,57.7773438 C34.4257812,58.4245524 33.9339066,58.9568776 33.3035865,59.0208901 L33.1757812,59.0273438 L25,59.0273438 C24.3096441,59.0273438 23.75,58.4676997 23.75,57.7773438 C23.75,57.1301351 24.2418747,56.5978099 24.8721948,56.5337974 L25,56.5273438 L33.1757812,56.5273438 Z M28.5,47.75 C29.1903559,47.75 29.75,48.3096441 29.75,49 C29.75,49.6472087 29.2581253,50.1795339 28.6278052,50.2435464 L28.5,50.25 L11.3242188,50.25 C10.6338628,50.25 10.0742188,49.6903559 10.0742188,49 C10.0742188,48.3527913 10.5660934,47.8204661 11.1964135,47.7564536 L11.3242188,47.75 L28.5,47.75 Z M5.5,47.75 C6.19035594,47.75 6.75,48.3096441 6.75,49 C6.75,49.6472087 6.25812534,50.1795339 5.62780524,50.2435464 L5.5,50.25 L1.27880859,50.25 C0.588452656,50.25 0.0288085938,49.6903559 0.0288085938,49 C0.0288085938,48.3527913 0.520683258,47.8204661 1.15100336,47.7564536 L1.27880859,47.75 L5.5,47.75 Z M70,15.75 C70.6903559,15.75 71.25,16.3096441 71.25,17 C71.25,17.6903559 70.6903559,18.25 70,18.25 C68.4112977,18.25 66.8514024,18.4584189 65.3481556,18.8654878 C57.6762087,20.942998 52.25,27.934617 52.25,36 C52.25,36.6903559 51.6903559,37.25 51,37.25 C50.3096441,37.25 49.75,36.6903559 49.75,36 C49.75,26.7985086 55.9396463,18.8232075 64.6947074,16.4523974 C66.4104956,15.9877737 68.1900947,15.75 70,15.75 Z M123.175781,34.5273438 C123.866137,34.5273438 124.425781,35.0869878 124.425781,35.7773438 C124.425781,36.4245524 123.933907,36.9568776 123.303586,37.0208901 L123.175781,37.0273438 L115,37.0273438 C114.309644,37.0273438 113.75,36.4676997 113.75,35.7773438 C113.75,35.1301351 114.241875,34.5978099 114.872195,34.5337974 L115,34.5273438 L123.175781,34.5273438 Z M129.5,26.75 C130.190356,26.75 130.75,27.3096441 130.75,28 C130.75,28.6472087 130.258125,29.1795339 129.627805,29.2435464 L129.5,29.25 L112.324219,29.25 C111.633863,29.25 111.074219,28.6903559 111.074219,28 C111.074219,27.3527913 111.566093,26.8204661 112.196414,26.7564536 L112.324219,26.75 L129.5,26.75 Z M136.5,26.75 C137.190356,26.75 137.75,27.3096441 137.75,28 C137.75,28.6472087 137.258125,29.1795339 136.627805,29.2435464 L136.5,29.25 L134.278809,29.25 C133.588453,29.25 133.028809,28.6903559 133.028809,28 C133.028809,27.3527913 133.520683,26.8204661 134.151003,26.7564536 L134.278809,26.75 L136.5,26.75 Z" id="Combined-Shape" fill="#8ECEED"></path>
                            <path d="M106.116117,68.1161165 C106.571728,67.6605048 107.291549,67.6301307 107.782388,68.0249942 L107.883883,68.1161165 L118.883883,79.1161165 C119.372039,79.6042719 119.372039,80.3957281 118.883883,80.8838835 C118.428272,81.3394952 117.708451,81.3698693 117.217612,80.9750058 L117.116117,80.8838835 L106.116117,69.8838835 C105.627961,69.3957281 105.627961,68.6042719 106.116117,68.1161165 Z" id="Line" fill="#FFFFFF" fill-rule="nonzero"></path>
                        </g>
                    </g>
                </g>
            </g>
        </g>
    </g>
</svg>
