<svg width="168" height="88" xmlns="http://www.w3.org/2000/svg"><g fill="none" fill-rule="evenodd"><path d="M160.5 1a7 7 0 010 14h-40a7 7 0 010 14h22a7 7 0 010 14h-10.174c-4.874 0-8.826 3.134-8.826 7 0 2.577 2 4.91 6 7a7 7 0 010 14h-83a7 7 0 010-14h-39a7 7 0 010-14h40a7 7 0 000-14h-25a7 7 0 010-14h40a7 7 0 010-14h98zm0 28a7 7 0 110 14 7 7 0 010-14z" fill="#F2F6FA"/><path d="M74 8C58.812 8 46.5 20.312 46.5 35.5S58.812 63 74 63s27.5-12.312 27.5-27.5S89.188 8 74 8z" fill="#FFF" fill-rule="nonzero"/><path d="M102.384 61.116l4.237 4.237a6.099 6.099 0 017.647.793l11.086 11.086a6.097 6.097 0 11-8.622 8.622l-11.086-11.086a6.099 6.099 0 01-.793-7.647l-4.237-4.237 1.768-1.768zm5.768 6.23l-1.306 1.306a3.599 3.599 0 00.423 4.195l.145.154L118.5 84.086a3.597 3.597 0 005.232-4.933l-.145-.154L112.5 67.914a3.598 3.598 0 00-4.35-.568zM74 .75c19.192 0 34.75 15.558 34.75 34.75S93.192 70.25 74 70.25 39.25 54.692 39.25 35.5 54.808.75 74 .75zm0 2.5c-17.811 0-32.25 14.439-32.25 32.25S56.189 67.75 74 67.75s32.25-14.439 32.25-32.25S91.811 3.25 74 3.25zm0 4.5c15.326 0 27.75 12.424 27.75 27.75S89.326 63.25 74 63.25 46.25 50.826 46.25 35.5 58.674 7.75 74 7.75zm0 2.5c-13.945 0-25.25 11.305-25.25 25.25S60.055 60.75 74 60.75 99.25 49.445 99.25 35.5 87.945 10.25 74 10.25z" fill="#53B3E0"/><path d="M37.676 56.527a1.25 1.25 0 01.128 2.494l-.128.006H29.5a1.25 1.25 0 01-.128-2.493l.128-.007h8.176zM33 47.75a1.25 1.25 0 01.128 2.494L33 50.25H15.824a1.25 1.25 0 01-.128-2.494l.128-.006H33zm-23 0a1.25 1.25 0 01.128 2.494L10 50.25H5.779a1.25 1.25 0 01-.128-2.494l.128-.006H10zm64.5-32a1.25 1.25 0 010 2.5c-1.589 0-3.149.208-4.652.615A17.757 17.757 0 0056.75 36a1.25 1.25 0 01-2.5 0c0-9.201 6.19-17.177 14.945-19.548a20.273 20.273 0 015.305-.702zm53.176 18.777a1.25 1.25 0 01.128 2.494l-.128.006H119.5a1.25 1.25 0 01-.128-2.493l.128-.007h8.176zM134 26.75a1.25 1.25 0 01.128 2.494l-.128.006h-17.176a1.25 1.25 0 01-.128-2.494l.128-.006H134zm7 0a1.25 1.25 0 01.128 2.494l-.128.006h-2.221a1.25 1.25 0 01-.128-2.494l.128-.006H141z" fill="#8ECEED"/><path d="M110.616 68.116a1.25 1.25 0 011.666-.091l.102.091 11 11a1.25 1.25 0 01-1.666 1.859l-.102-.091-11-11a1.25 1.25 0 010-1.768z" fill="#FFF" fill-rule="nonzero"/></g></svg>