<?xml version="1.0" encoding="UTF-8"?>
<svg width="217px" height="123px" viewBox="0 0 217 123" version="1.1" xmlns="http://www.w3.org/2000/svg" xmlns:xlink="http://www.w3.org/1999/xlink">
    <title>EmptyState</title>
    <g id="Final-Pages" stroke="none" stroke-width="1" fill="none" fill-rule="evenodd">
        <g id="Download-Center-Modal" transform="translate(-612.000000, -395.000000)">
            <g id="Add-Note-Modal" transform="translate(428.000000, 260.000000)">
                <g id="Group-2-Copy" transform="translate(103.000000, 92.000000)">
                    <g id="Done" transform="translate(64.500000, 0.000000)">
                        <path d="M136,64 C139.865993,64 143,67.1340068 143,71 C143,74.8659932 139.865993,78 136,78 L200,78 C203.865993,78 207,81.1340068 207,85 C207,88.8659932 203.865993,92 200,92 L222,92 C225.865993,92 229,95.1340068 229,99 C229,102.865993 225.865993,106 222,106 L203,106 C199.134007,106 196,109.134007 196,113 C196,116.865993 199.134007,120 203,120 L209,120 C212.865993,120 216,123.134007 216,127 C216,130.865993 212.865993,134 209,134 L63,134 C59.1340068,134 56,130.865993 56,127 C56,123.134007 59.1340068,120 63,120 L24,120 C20.1340068,120 17,116.865993 17,113 C17,109.134007 20.1340068,106 24,106 L64,106 C67.8659932,106 71,102.865993 71,99 C71,95.1340068 67.8659932,92 64,92 L39,92 C35.1340068,92 32,88.8659932 32,85 C32,81.1340068 35.1340068,78 39,78 L79,78 C75.1340068,78 72,74.8659932 72,71 C72,67.1340068 75.1340068,64 79,64 L136,64 Z M226,120 C229.865993,120 233,123.134007 233,127 C233,130.865993 229.865993,134 226,134 C222.134007,134 219,130.865993 219,127 C219,123.134007 222.134007,120 226,120 Z" id="BG" fill="#F2F6FA"></path>
                        <path d="M121.498238,149.602814 C125.041754,150.306889 128.679232,150.428661 131.311293,150.232849 M135.624444,149.848768 L135.624444,149.848768 C137.906805,149.577776 140.140098,149.146086 142.312775,148.565285 C147.091331,147.287881 151.576674,145.289184 155.645955,142.692475 C159.761453,140.066273 163.451384,136.828398 166.588663,133.10638 C169.32624,129.858561 171.643015,126.242104 173.454551,122.34174 C175.251784,118.472174 176.551725,114.323166 177.271922,109.977459 C177.701077,107.387919 177.924377,104.728535 177.924377,102.016813 C177.924377,98.0355356 177.443046,94.1670723 176.535594,90.4668272 C175.560567,86.4910348 174.093592,82.7094469 172.203154,79.1907892 C169.835638,74.7841464 166.803956,70.7898878 163.242631,67.3430064 C160.471706,64.661125 157.380146,62.3106135 154.031315,60.3550563 C150.261201,58.1534902 146.165014,56.4524992 141.833165,55.3428099 C138.025206,54.3673252 134.035138,53.8487679 129.924377,53.8487679 C124.758433,53.8487679 119.783096,54.667707 115.120252,56.183272 C110.55512,57.6670775 106.289521,59.8186182 102.437839,62.5231104 C98.4695921,65.3094494 94.9406938,68.6827145 91.9762299,72.517382 C88.1339305,77.4875691 85.2398386,83.232878 83.566314,89.4799956 C82.495474,93.4773449 81.9243769,97.6801523 81.9243769,102.016813 C81.9243769,108.90132 83.3636548,115.448489 85.9567327,121.371842 C89.110149,128.575173 93.9698915,134.855959 100.022544,139.698986 C105.102428,143.763653 111.022591,146.815571 117.47951,148.550153" id="Shape" fill="#FFFFFF" transform="translate(129.924377, 102.082804) rotate(-44.000000) translate(-129.924377, -102.082804) "></path>
                        <path d="M110.980176,101.368519 C109.523876,100.056698 107.264886,100.157416 105.934579,101.593481 C104.604273,103.029546 104.706411,105.257148 106.162711,106.56897 L122.971046,121.709769 C125.009865,123.54632 128.172452,123.405314 130.034881,121.394823 C130.112761,121.309429 130.112761,121.309429 130.187915,121.221692 L154.174662,92.7734851 C155.435707,91.2778891 155.228483,89.0573939 153.711813,87.8138703 C152.195143,86.5703468 149.94336,86.7746919 148.682314,88.270288 L126.130917,115.016174 L110.980176,101.368519 Z" id="Path" fill="#E3FFA6"></path>
                        <path d="M129.760254,52.6984368 C134.866142,52.7041799 139.948544,53.4977713 144.815805,55.0560375 C148.757252,56.3179018 152.530697,58.0723523 156.050638,60.2907515 C159.401123,62.4023532 162.504898,64.9233143 165.305637,67.8235647 C167.220116,69.8060657 168.953304,71.92467 170.496098,74.1619029 C173.032804,77.8404254 175.042735,81.8224719 176.491296,86.008657 C177.926082,90.1550346 178.800026,94.4734326 179.096006,98.8458769 C179.433966,103.838499 179.01529,108.857111 177.852076,113.718297 C176.686909,118.587648 174.785973,123.253644 172.195987,127.558379 C170.99754,129.55028 169.654759,131.459609 168.173589,133.273842 C167.736995,133.80861 166.94955,133.888196 166.414782,133.451602 C165.880014,133.015008 165.800428,132.227563 166.237022,131.692795 C167.642655,129.971085 168.916753,128.159419 170.053825,126.269527 C172.511151,122.18528 174.314887,117.75787 175.420715,113.136507 C176.52508,108.521253 176.922642,103.755732 176.601714,99.0147204 C176.320663,94.8628161 175.49087,90.7625805 174.128743,86.8261797 C172.75376,82.8526252 170.846044,79.0730873 168.438012,75.5811572 C166.972882,73.4565468 165.326549,71.4441103 163.507288,69.5602106 C160.8462,66.8045736 157.898737,64.4105726 154.717684,62.4057536 C151.376637,60.3001001 147.79501,58.634835 144.053536,57.4369924 C139.432251,55.957476 134.606049,55.203889 129.757442,55.1984352 C125.98846,55.1941958 122.232235,55.6420846 118.574954,56.5347911 C114.402038,57.5533592 110.387407,59.1435472 106.640156,61.2750102 C103.267447,63.193431 100.129495,65.539675 97.2861391,68.2854719 C93.7227761,71.7265715 90.772346,75.6502449 88.4940455,79.9361377 C86.3196724,84.0265245 84.7754765,88.4144442 83.8987049,92.9567568 C83.0042195,97.5908393 82.8129975,102.342631 83.3309794,107.039346 C84.010146,113.197575 85.8975518,119.17062 88.9153867,124.614199 C90.8976617,128.189832 93.3532014,131.512064 96.2490165,134.510768 C100.81851,139.242617 106.224605,142.898978 112.17109,145.344789 C119.211013,148.240335 126.862806,149.375263 134.428588,148.668749 C140.817778,148.072109 147.018255,146.174554 152.645529,143.060039 C153.249544,142.725737 154.010199,142.944381 154.344502,143.548396 C154.678804,144.15241 154.46016,144.913066 153.856146,145.247368 C147.925375,148.529859 141.391662,150.529395 134.661033,151.15792 C126.693368,151.901962 118.635405,150.70679 111.220127,147.656859 C104.955945,145.080378 99.2609909,141.22865 94.450667,136.247414 C91.4027833,133.091238 88.8168588,129.592602 86.7289072,125.826349 C83.5495794,120.091468 81.5613583,113.799375 80.8460459,107.313399 C80.3005776,102.367456 80.5019452,97.3635494 81.444015,92.4829448 C82.3677275,87.6974445 83.9949414,83.0736247 86.2865593,78.7626793 C88.6876549,74.2457868 91.7967668,70.1110882 95.5494932,66.4871224 C98.5436959,63.5956545 101.849892,61.1236146 105.404105,59.1019527 C109.353723,56.8553817 113.584923,55.1794113 117.982133,54.1060953 C121.834756,53.1657077 125.790973,52.6939721 129.760254,52.6984368 Z M165.201765,134.823131 C165.716848,135.282784 165.761782,136.072964 165.302128,136.588047 C163.262117,138.874061 160.439401,141.310635 157.549347,143.170438 C156.968809,143.544025 156.195339,143.376258 155.821752,142.79572 C155.448165,142.215182 155.615932,141.441711 156.19647,141.068124 C158.893007,139.332853 161.544351,137.044208 163.436849,134.923494 C163.896503,134.408412 164.686682,134.363478 165.201765,134.823131 Z M147.726678,87.4645217 C149.428866,85.4457321 152.459559,85.1707024 154.504357,86.84724 C156.55952,88.5322765 156.841161,91.5501732 155.130298,93.5792514 L155.130298,93.5792514 L131.05047,122.135312 L130.774361,122.428328 C128.42837,124.763753 124.617224,124.874996 122.134434,122.638521 L122.134434,122.638521 L105.326099,107.497722 C103.352069,105.719534 103.213244,102.691783 105.017575,100.744009 C106.812651,98.8062252 109.852856,98.6706755 111.816787,100.439767 L111.816787,100.439767 L126.007,113.223 Z M152.919269,88.7805006 C151.930727,87.9699912 150.457854,88.1036517 149.63795,89.0760543 L149.63795,89.0760543 L126.253969,116.809382 L110.143564,102.297272 C109.194896,101.44272 107.71712,101.508607 106.851584,102.442953 C105.995302,103.367308 106.060752,104.794762 106.999322,105.640218 L106.999322,105.640218 L123.807657,120.781017 C125.338846,122.160298 127.720218,122.054123 129.1113,120.552506 L129.1113,120.552506 L153.219025,91.9677189 C154.030254,91.0056049 153.897445,89.5825113 152.919269,88.7805006 Z" id="Combined-Shape" fill="#A7E521"></path>
                        <g id="bling" stroke-width="1" transform="translate(84.000000, 43.000000)" fill="#E3FFA6">
                            <path d="M9.5,115.75 C10.1472087,115.75 10.6795339,116.241875 10.7435464,116.872195 L10.75,117 L10.75,121 C10.75,121.690356 10.1903559,122.25 9.5,122.25 C8.85279131,122.25 8.3204661,121.758125 8.25645361,121.127805 L8.25,121 L8.25,117 C8.25,116.309644 8.80964406,115.75 9.5,115.75 Z M5.5,111.75 C6.19035594,111.75 6.75,112.309644 6.75,113 C6.75,113.647209 6.25812534,114.179534 5.62780524,114.243546 L5.5,114.25 L1.5,114.25 C0.809644063,114.25 0.25,113.690356 0.25,113 C0.25,112.352791 0.741874664,111.820466 1.37219476,111.756454 L1.5,111.75 L5.5,111.75 Z M17.5,111.75 C18.1903559,111.75 18.75,112.309644 18.75,113 C18.75,113.647209 18.2581253,114.179534 17.6278052,114.243546 L17.5,114.25 L13.5,114.25 C12.8096441,114.25 12.25,113.690356 12.25,113 C12.25,112.352791 12.7418747,111.820466 13.3721948,111.756454 L13.5,111.75 L17.5,111.75 Z M9.5,103.75 C10.1472087,103.75 10.6795339,104.241875 10.7435464,104.872195 L10.75,105 L10.75,109 C10.75,109.690356 10.1903559,110.25 9.5,110.25 C8.85279131,110.25 8.3204661,109.758125 8.25645361,109.127805 L8.25,109 L8.25,105 C8.25,104.309644 8.80964406,103.75 9.5,103.75 Z M11.6545474,34.7842248 C12.2302592,35.1652068 12.3881188,35.9407603 12.0071369,36.5164721 C11.2936412,37.5946539 10.6337684,38.7043629 10.0289048,39.8422202 C9.58532837,40.6766672 9.17155821,41.5258362 8.78809959,42.3882735 C8.50762596,43.0190872 7.76888166,43.3030939 7.13806801,43.0226203 C6.50725435,42.7421466 6.22324765,42.0034023 6.50372127,41.3725887 C6.91093075,40.4567332 7.35034336,39.5549389 7.82141857,38.6687618 C8.46379162,37.4603426 9.16458548,36.2818165 9.9223001,35.1368142 C10.3032821,34.5611025 11.0788356,34.4032428 11.6545474,34.7842248 Z M32.3526546,19.2619298 C32.5951467,19.9082957 32.2677422,20.6288575 31.6213763,20.8713495 C29.6308966,21.6181022 27.7002874,22.5214974 25.8460365,23.5762085 C22.9062605,25.2483741 20.1710677,27.2934754 17.6925591,29.6869433 C16.6690368,30.6753473 15.7029061,31.7100028 14.796034,32.7876303 C14.3515242,33.3158371 13.5629817,33.3836869 13.0347749,32.9391771 C12.5065682,32.4946673 12.4387184,31.7061248 12.8832281,31.177918 C13.8455086,30.0344493 14.8704347,28.9368282 15.9559132,27.8885938 C18.5852685,25.3494549 21.4887053,23.1785577 24.6099859,21.403151 C26.579202,20.2830469 28.6295064,19.3236424 30.7432348,18.5306514 C31.3896008,18.2881594 32.1101625,18.6155638 32.3526546,19.2619298 Z M92.5,14.75 C93.1472087,14.75 93.6795339,15.2418747 93.7435464,15.8721948 L93.75,16 L93.75,22 C93.75,22.6903559 93.1903559,23.25 92.5,23.25 C91.8527913,23.25 91.3204661,22.7581253 91.2564536,22.1278052 L91.25,22 L91.25,16 C91.25,15.3096441 91.8096441,14.75 92.5,14.75 Z M88.5,10.75 C89.1903559,10.75 89.75,11.3096441 89.75,12 C89.75,12.6472087 89.2581253,13.1795339 88.6278052,13.2435464 L88.5,13.25 L82.5,13.25 C81.8096441,13.25 81.25,12.6903559 81.25,12 C81.25,11.3527913 81.7418747,10.8204661 82.3721948,10.7564536 L82.5,10.75 L88.5,10.75 Z M102.5,10.75 C103.190356,10.75 103.75,11.3096441 103.75,12 C103.75,12.6472087 103.258125,13.1795339 102.627805,13.2435464 L102.5,13.25 L96.5,13.25 C95.8096441,13.25 95.25,12.6903559 95.25,12 C95.25,11.3527913 95.7418747,10.8204661 96.3721948,10.7564536 L96.5,10.75 L102.5,10.75 Z M92.5,0.75 C93.1472087,0.75 93.6795339,1.24187466 93.7435464,1.87219476 L93.75,2 L93.75,8 C93.75,8.69035594 93.1903559,9.25 92.5,9.25 C91.8527913,9.25 91.3204661,8.75812534 91.2564536,8.12780524 L91.25,8 L91.25,2 C91.25,1.30964406 91.8096441,0.75 92.5,0.75 Z" id="Combined-Shape"></path>
                        </g>
                    </g>
                </g>
            </g>
        </g>
    </g>
</svg>
