<svg width="217" height="123" xmlns="http://www.w3.org/2000/svg"><g fill="none" fill-rule="evenodd"><path d="M119.5 21a7 7 0 010 14h64a7 7 0 010 14h22a7 7 0 010 14h-19a7 7 0 000 14h6a7 7 0 010 14h-146a7 7 0 010-14h-39a7 7 0 010-14h40a7 7 0 000-14h-25a7 7 0 010-14h40a7 7 0 010-14h57zm90 56a7 7 0 110 14 7 7 0 010-14z" fill="#F2F6FA"/><path d="M140.373 99.12c3.038-1.956 5.74-4.395 7.497-6.364m2.836-3.273a47.66 47.66 0 009.431-19.056 48.303 48.303 0 00-1.327-27.01 47.94 47.94 0 00-5.843-11.546 48.664 48.664 0 00-5.06-6.18 48.44 48.44 0 00-9.022-7.343 47.947 47.947 0 00-10.95-5.102 48.327 48.327 0 00-26.156-.926 47.613 47.613 0 00-12.256 4.868 47.933 47.933 0 00-9.605 7.198 47.811 47.811 0 00-9.027 11.963 47.76 47.76 0 00-4.72 13.37 48.348 48.348 0 00-.582 14.457A48.067 48.067 0 0078.85 92.38a48.147 48.147 0 0016.346 11.12 48.308 48.308 0 0022.85 3.412 47.783 47.783 0 0018.705-5.76" fill="#FFF"/><path d="M94.48 58.369a3.607 3.607 0 00-5.045.224 3.488 3.488 0 00.228 4.976l16.808 15.14c2.039 1.837 5.201 1.696 7.064-.314.078-.086.078-.086.153-.173l23.987-28.449a3.488 3.488 0 00-.463-4.96 3.606 3.606 0 00-5.03.457l-22.551 26.746L94.48 58.37z" fill="#E3FFA6"/><path d="M113.26 9.698c5.106.006 10.189.8 15.056 2.358a49.196 49.196 0 0111.235 5.235 49.69 49.69 0 019.255 7.533 49.914 49.914 0 015.19 6.338 49.188 49.188 0 015.995 11.847 49.553 49.553 0 011.36 27.71 48.908 48.908 0 01-9.677 19.555 1.25 1.25 0 01-1.937-1.581 46.409 46.409 0 009.184-18.556 47.053 47.053 0 00-1.292-26.31 46.688 46.688 0 00-5.691-11.246 47.414 47.414 0 00-4.93-6.02 47.19 47.19 0 00-8.79-7.155 46.696 46.696 0 00-10.664-4.969 47.076 47.076 0 00-25.479-.902 46.361 46.361 0 00-11.935 4.74 46.682 46.682 0 00-9.354 7.01 46.56 46.56 0 00-8.792 11.651 46.51 46.51 0 00-4.595 13.02 47.098 47.098 0 00-.568 14.083 46.815 46.815 0 0012.918 27.472 46.894 46.894 0 0015.922 10.834 47.057 47.057 0 0022.258 3.324 46.53 46.53 0 0018.217-5.609 1.25 1.25 0 011.21 2.187 49.03 49.03 0 01-19.195 5.91 49.557 49.557 0 01-23.44-3.5 49.394 49.394 0 01-16.77-11.41 49.315 49.315 0 01-13.605-28.934 49.598 49.598 0 01.598-14.83 49.009 49.009 0 014.843-13.72 49.06 49.06 0 019.262-12.276 49.182 49.182 0 019.855-7.385 48.861 48.861 0 0112.578-4.996 49.444 49.444 0 0111.778-1.408zm35.442 82.125c.515.46.56 1.25.1 1.765-2.04 2.286-4.863 4.723-7.753 6.582a1.25 1.25 0 11-1.353-2.102c2.697-1.735 5.348-4.024 7.24-6.145a1.25 1.25 0 011.766-.1zm-17.475-47.358c1.702-2.02 4.733-2.294 6.777-.618a4.738 4.738 0 01.626 6.732l-24.08 28.556-.276.293c-2.346 2.336-6.157 2.447-8.64.21l-16.808-15.14a4.738 4.738 0 01-.308-6.754 4.857 4.857 0 016.799-.304l14.19 12.783zm5.192 1.316a2.356 2.356 0 00-3.281.295L109.754 73.81l-16.11-14.512a2.357 2.357 0 00-3.292.146 2.238 2.238 0 00.147 3.197l16.809 15.141c1.53 1.38 3.912 1.273 5.303-.228l24.108-28.585a2.238 2.238 0 00-.3-3.187z" fill="#A7E521"/><path d="M77 115.75c.647 0 1.18.492 1.244 1.122l.006.128v4a1.25 1.25 0 01-2.494.128L75.75 121v-4c0-.69.56-1.25 1.25-1.25zm-4-4a1.25 1.25 0 01.128 2.494l-.128.006h-4a1.25 1.25 0 01-.128-2.494l.128-.006h4zm12 0a1.25 1.25 0 01.128 2.494l-.128.006h-4a1.25 1.25 0 01-.128-2.494l.128-.006h4zm-8-8c.647 0 1.18.492 1.244 1.122l.006.128v4a1.25 1.25 0 01-2.494.128L75.75 109v-4c0-.69.56-1.25 1.25-1.25zm2.155-68.966a1.25 1.25 0 01.352 1.732 40.318 40.318 0 00-3.219 5.872 1.25 1.25 0 11-2.284-1.015 42.842 42.842 0 013.418-6.236 1.25 1.25 0 011.733-.353zm20.698-15.522a1.25 1.25 0 01-.732 1.61 40.331 40.331 0 00-5.775 2.704 40.69 40.69 0 00-8.153 6.11 41.09 41.09 0 00-2.897 3.102 1.25 1.25 0 11-1.913-1.61 43.59 43.59 0 013.073-3.29 43.19 43.19 0 018.654-6.485c1.97-1.12 4.02-2.08 6.133-2.872a1.25 1.25 0 011.61.73zM160 14.75c.647 0 1.18.492 1.244 1.122l.006.128v6a1.25 1.25 0 01-2.494.128L158.75 22v-6c0-.69.56-1.25 1.25-1.25zm-4-4a1.25 1.25 0 01.128 2.494l-.128.006h-6a1.25 1.25 0 01-.128-2.494l.128-.006h6zm14 0a1.25 1.25 0 01.128 2.494l-.128.006h-6a1.25 1.25 0 01-.128-2.494l.128-.006h6zm-10-10c.647 0 1.18.492 1.244 1.122l.006.128v6a1.25 1.25 0 01-2.494.128L158.75 8V2c0-.69.56-1.25 1.25-1.25z" fill="#E3FFA6"/></g></svg>