<?xml version="1.0" encoding="UTF-8"?>
<svg width="250px" height="200px" viewBox="0 0 250 200" version="1.1" xmlns="http://www.w3.org/2000/svg" xmlns:xlink="http://www.w3.org/1999/xlink">
    <title>Translation</title>
    <g id="Translation" stroke="none" stroke-width="1" fill="none" fill-rule="evenodd">
        <path d="M202,65 C205.865993,65 209,68.1340068 209,72 C209,75.8659932 205.865993,79 202,79 L162,79 C165.865993,79 169,82.1340068 169,86 C169,89.8659932 165.865993,93 162,93 L184,93 C187.865993,93 191,96.1340068 191,100 C191,103.865993 187.865993,107 184,107 L173.826087,107 C168.951574,107 165,110.134007 165,114 C165,116.577329 167,118.910662 171,121 C174.865993,121 178,124.134007 178,128 C178,131.865993 174.865993,135 171,135 L88,135 C84.1340068,135 81,131.865993 81,128 C81,124.134007 84.1340068,121 88,121 L49,121 C45.1340068,121 42,117.865993 42,114 C42,110.134007 45.1340068,107 49,107 L89,107 C92.8659932,107 96,103.865993 96,100 C96,96.1340068 92.8659932,93 89,93 L64,93 C60.1340068,93 57,89.8659932 57,86 C57,82.1340068 60.1340068,79 64,79 L104,79 C100.134007,79 97,75.8659932 97,72 C97,68.1340068 100.134007,65 104,65 L202,65 Z M202,93 C205.865993,93 209,96.1340068 209,100 C209,103.865993 205.865993,107 202,107 C198.134007,107 195,103.865993 195,100 C195,96.1340068 198.134007,93 202,93 Z" id="Background" fill="#F2F6FA"></path>
        <g id="Group-2" transform="translate(61.000000, 49.000000)">
            <path d="M76.9777872,2.45500615 L77.3113935,2.46642166 C81.1313327,2.68978112 84.0477519,5.98152827 83.8253981,9.81874469 L83.8253981,9.81874469 L82.4016794,34.367661 L73.9630466,34.6900009 C73.9583542,34.4381118 73.8378495,34.1949416 73.6259569,34.0412625 L73.5318989,33.9823316 L66.0468765,29.9669976 C65.9202254,29.8990557 65.7779555,29.8659253 65.6344633,29.8709588 C65.1845722,29.8867404 64.8325993,30.2658922 64.8483099,30.7178181 L64.8483099,30.7178181 L64.9517089,33.7068403 L58.2313489,33.7068552 L57.9177254,33.7121271 C57.7087455,33.7191547 57.5000289,33.7332056 57.2919264,33.7542619 C55.0610707,33.9799858 53.0920495,34.9739985 51.6186743,36.4488157 L51.202864,36.5978549 L50.9890366,37.1450238 C49.5081001,38.9555507 48.6960683,41.3175899 48.8837327,43.8244154 L48.8837327,43.8244154 L48.9049335,44.0665313 L50.0770147,55.755848 L38.7465626,55.7564635 L38.6191345,55.7631374 C38.2405292,55.8029354 37.8989391,56.0185044 37.6997494,56.3500832 L37.6997494,56.3500832 L27.907819,72.6501025 L27.8387412,72.7529621 C27.7400469,72.885007 27.6155869,72.9960595 27.4725154,73.0790694 C26.8877933,73.4183243 26.1400001,73.21719 25.8022727,72.6298232 L25.8022727,72.6298232 L16.4533171,56.3703625 L16.3892685,56.2704387 C16.1612341,55.9498573 15.7916126,55.7564635 15.394584,55.7564635 L15.394584,55.7564635 L11.0281916,55.7564635 L10.7964637,55.7533732 C6.17685361,55.6300216 2.46967944,51.8295183 2.46967944,47.1592418 L2.46967944,47.1592418 L2.46967944,20.0243182 L2.47280689,19.7903099 C2.58516931,15.5905068 5.71301975,12.0713822 9.88023462,11.5047838 L9.88023462,11.5047838 L39.9221131,7.42011786 L40.0380472,7.39868129 C40.6445027,7.25616841 41.0549593,6.67093906 40.9697157,6.03830593 C40.9666782,6.01576355 40.96305,5.99344726 40.9588487,5.97137069 L45.2606794,5.37966099 L45.2667315,5.45405905 C45.3516421,6.08422096 45.8982434,6.53770189 46.5175963,6.51695944 L46.6423217,6.50639981 L59.2965313,4.78586098 L59.4124654,4.76442441 C60.0189209,4.62191153 60.4293775,4.03668218 60.3441339,3.40404904 C60.3397057,3.37118576 60.334022,3.33880299 60.3271377,3.30694294 L66.2416794,2.49266099 L66.2514708,2.60085367 C66.3363814,3.23101558 66.8829827,3.68449651 67.5023357,3.66375406 L67.6270611,3.65319443 L75.9794879,2.51755064 L76.311254,2.48059291 C76.6437137,2.45168255 76.9779641,2.44692538 77.3113935,2.46642166 Z M26.6406484,23.239308 C26.1385853,22.993566 25.5724577,23.0411491 25.1292635,23.3154149 C24.7093214,23.5471403 24.4307427,23.9479947 24.3362526,24.3939236 L24.3362526,24.3939236 L18.3332526,37.1028976 L18.294025,37.1927317 C17.9791945,37.9763838 18.3151423,38.8839151 19.074684,39.2556837 C19.8634388,39.6417511 20.8103129,39.3038549 21.1895865,38.5009713 L21.1895865,38.5009713 L22.285488,36.179565 L29.5341402,36.179565 L30.6499582,38.5408556 L30.6943987,38.6281381 C31.0991538,39.3677754 32.0053191,39.6673366 32.7648608,39.2955679 C33.5536156,38.9095005 33.8855657,37.9456653 33.5062921,37.1427818 L33.5062921,37.1427818 L27.5250329,24.4809582 C27.456726,23.9604035 27.1403649,23.4839015 26.6406484,23.239308 Z M25.9104589,28.50702 L27.9870873,32.9044329 L23.8325409,32.9044329 L25.9104589,28.50702 Z" id="Combined-Shape" fill="#CCEEFF"></path>
            <path d="M125.626689,31.8302866 C130.242926,31.6143014 134.216587,35.1326011 134.556233,39.7903986 L134.556233,39.7903986 L134.573382,40.1042191 L134.579101,40.4184595 L134.579101,43.9434437 L134.584698,44.0617251 C134.643943,44.684534 135.166218,45.1716183 135.801746,45.1716183 L135.801746,45.1716183 L135.801746,47.0851778 C135.166218,47.0851778 134.643943,47.7448335 134.584698,48.5883003 L134.584698,48.5883003 L134.579101,48.7484882 L134.579101,63.4350937 L134.584698,63.5952816 C134.643943,64.4387484 135.166218,65.0984041 135.801746,65.0984041 L135.801746,65.0984041 L135.801746,67.5066953 C135.166218,67.5066953 134.643943,67.9937795 134.584698,68.6165884 L134.584698,68.6165884 L134.579101,68.7348698 L134.579101,74.6770306 L134.576025,74.9098066 C134.455275,79.4729691 130.794933,83.1498663 126.252317,83.271162 L126.252317,83.271162 L126.020589,83.2742523 L114.027839,83.2742523 L113.896668,83.2813242 C113.55042,83.3187989 113.235852,83.5032663 113.033154,83.7882275 L113.033154,83.7882275 L112.969106,83.8881513 L103.74577,99.9291373 L103.682031,100.02875 C103.320631,100.538297 102.625854,100.697682 102.075527,100.378383 C101.917857,100.286903 101.783026,100.161508 101.680338,100.011843 L101.680338,100.011843 L101.609494,99.8951946 L91.7389441,81.4017136 L91.6735869,81.2931071 C91.4856776,81.0144445 91.1916767,80.8252821 90.8611091,80.7703526 L90.8611091,80.7703526 L90.7355679,80.7561336 L62.0883923,79.0072797 L61.8607019,78.9903541 C57.852694,78.6389767 54.6265661,75.5243947 54.1180105,71.5153722 L54.1180105,71.5153722 L54.0921397,71.2875037 L51.3379115,43.8203562 L51.3201143,43.6121789 C51.0556949,39.872905 53.7990735,36.5764566 57.5369931,36.198244 C57.690808,36.1826806 57.8450768,36.1722952 57.9995402,36.1671008 L57.9995402,36.1671008 L58.2313489,36.1632043 L65.037294,36.1631893 L65.1453774,39.2631953 C65.1503883,39.4073365 65.1932134,39.5475907 65.2695194,39.6697654 C65.5087614,40.0528195 66.0118338,40.168525 66.3931632,39.9282009 L66.3931632,39.9282009 L73.581118,35.3981578 C73.701471,35.322308 73.7999967,35.2161744 73.8669255,35.0902805 C73.9596147,34.9159312 73.9831336,34.7230195 73.9470822,34.5432933 L82.4055053,34.3078537 L82.1332426,39.0179995 L82.1072517,39.3348109 C81.6515992,43.8765796 77.7311153,47.2721062 73.1919742,47.0563227 L73.1919742,47.0563227 L73.1442428,47.0530034 L73.1448284,43.6442913 C73.1448284,43.5000621 73.1069021,43.3583921 73.0348872,43.2336168 C72.8090992,42.8424088 72.3103531,42.7091374 71.9209066,42.9359466 L71.9209066,42.9359466 L64.5799461,47.2112396 C64.4570312,47.2828239 64.3548782,47.3854389 64.2836163,47.5089097 C64.0578282,47.9001176 64.1904996,48.4011196 64.5799461,48.6279288 L64.5799461,48.6279288 L71.9209066,52.9032218 C72.0451201,52.9755624 72.1861523,53.0136602 72.329732,53.0136602 C72.7798973,53.0136602 73.1448284,52.6470786 73.1448284,52.1948772 L73.1448284,52.1948772 L73.1446688,49.5129866 C79.0510282,49.7580563 84.1265741,45.2498722 84.5660422,39.2841693 L84.5660422,39.2841693 L84.8685053,34.0578537 L89.4679303,33.4359459 C89.5799216,33.9432248 90.0006568,34.3240959 90.5097981,34.3874373 L90.6328767,34.3964294 L90.7507198,34.3933957 L125.395356,31.8442098 Z M105.715692,47.9756172 C105.277066,47.8738881 104.839393,48.1486055 104.738121,48.5892156 C104.533995,49.4773273 104.369197,50.356319 104.243322,51.2272751 C102.661183,51.2049096 101.144571,51.0301484 99.6932046,50.7035543 C99.2539261,50.6047055 98.8180487,50.8822889 98.719645,51.3235542 C98.6212414,51.7648194 98.897575,52.2026683 99.3368534,52.301517 C100.848632,52.6417055 102.42083,52.8283103 104.053349,52.8612041 C103.93045,54.2530403 103.911129,55.6205431 103.995508,56.9633717 L103.995508,56.9633717 L103.829585,57.0199581 L103.392291,57.1796178 C99.3047576,58.7402929 97.1460088,61.53968 99.1408511,64.4927589 C100.779883,66.9191115 102.993949,67.306359 105.371468,65.5858077 L105.371468,65.5858077 L105.549761,65.4531667 C107.031806,64.3207457 108.632475,62.3581061 110.370916,59.5572917 L110.370916,59.5572917 L110.808408,58.8396215 C110.955203,58.5945743 111.102965,58.343702 111.251707,58.0869997 L111.251707,58.0869997 L111.440732,57.7593596 L111.697616,57.8027891 C113.648431,58.1628478 115.004831,59.0858493 115.272159,60.4883987 C116.021392,64.419272 114.37577,66.1385739 109.854339,65.9571316 L109.854339,65.9571316 L109.358874,65.9304322 C108.909707,65.9003311 108.521294,66.2416978 108.491328,66.6928962 C108.461362,67.1440946 108.801192,67.534265 109.250359,67.5643662 C115.145805,67.9594527 117.864892,65.3830385 116.873269,60.1804571 L116.873269,60.1804571 L116.833742,59.9937747 C116.374593,58.0254247 114.720651,56.7906144 112.446359,56.2719996 L112.446359,56.2719996 L112.285987,56.2364232 L112.569127,55.7094958 C112.781249,55.3106448 112.631332,54.8145751 112.234277,54.601493 C111.837222,54.3884109 111.343385,54.5390063 111.131263,54.9378573 L111.131263,54.9378573 L110.917276,55.3376019 L110.549832,56.0120766 L110.392993,56.0039891 C108.942982,55.9381052 107.347807,56.0972867 105.709707,56.4784465 L105.709707,56.4784465 L105.602744,56.5047065 C105.545048,55.3070583 105.574707,54.0871163 105.691826,52.8445913 L105.691826,52.8445913 L106.123191,52.8241916 C108.823716,52.6736011 111.678961,52.1291912 114.687848,51.1931104 C115.117863,51.0593305 115.358497,50.6007082 115.225319,50.1687486 C115.092142,49.7367891 114.635584,49.4950667 114.20557,49.6288465 C111.26734,50.5429455 108.498015,51.0646902 105.896508,51.1960019 C106.009908,50.457659 106.15324,49.7115474 106.326528,48.9576093 C106.427799,48.5169992 106.154318,48.0773464 105.715692,47.9756172 Z M104.156268,58.6388277 C104.359072,60.2037878 104.707248,61.7339752 105.201,63.2288245 L105.201,63.2288245 L105.29925,63.5175638 C104.997136,63.8043794 104.70351,64.0509293 104.418576,64.2571293 C102.784471,65.4396901 101.612073,65.2346337 100.489798,63.5732665 C99.3741778,61.9217499 100.634604,60.1280995 103.44697,58.918446 L103.44697,58.918446 L103.840016,58.7571812 L104.043609,58.6793916 Z M109.626327,57.633267 L109.461448,57.9112253 C108.435984,59.6295206 107.469688,61.0391198 106.566432,62.1376068 C106.174908,60.8396664 105.899158,59.5127437 105.739343,58.1563956 L105.739343,58.1563956 L106.077579,58.0737727 C107.289569,57.7917618 108.458678,57.6479794 109.53409,57.6338585 L109.53409,57.6338585 L109.626327,57.633267 Z" id="Combined-Shape" fill="#FFFFFF"></path>
            <path d="M40.9697157,6.03830593 C41.0549593,6.67093906 40.6445027,7.25616841 40.0380472,7.39868129 L39.9221131,7.42011786 L9.88023462,11.5047838 C5.71301975,12.0713822 2.58516931,15.5905068 2.47280689,19.7903099 L2.46967944,20.0243182 L2.46967944,47.1592418 C2.46967944,51.8295183 6.17685361,55.6300216 10.7964637,55.7533732 L11.0281916,55.7564635 L15.394584,55.7564635 C15.7916126,55.7564635 16.1612341,55.9498573 16.3892685,56.2704387 L16.4533171,56.3703625 L25.8022727,72.6298232 C26.1400001,73.21719 26.8877933,73.4183243 27.4725154,73.0790694 C27.6155869,72.9960595 27.7400469,72.885007 27.8387412,72.7529621 L27.907819,72.6501025 L37.6997494,56.3500832 C37.8989391,56.0185044 38.2405292,55.8029354 38.6191345,55.7631374 L38.7465626,55.7564635 L50.0770147,55.755848 L48.9049335,44.0665313 L48.8837327,43.8244154 C48.5037889,38.7491175 52.2215712,34.2672939 57.2919264,33.7542619 C57.5000289,33.7332056 57.7087455,33.7191547 57.9177254,33.7121271 L58.2313489,33.7068552 L64.9517089,33.7068403 L64.8483099,30.7178181 C64.8325993,30.2658922 65.1845722,29.8867404 65.6344633,29.8709588 C65.7779555,29.8659253 65.9202254,29.8990557 66.0468765,29.9669976 L73.5318989,33.9823316 C73.928988,34.1953497 74.0789846,34.6913953 73.8669255,35.0902805 C73.7999967,35.2161744 73.701471,35.322308 73.581118,35.3981578 L66.3931632,39.9282009 C66.0118338,40.168525 65.5087614,40.0528195 65.2695194,39.6697654 C65.1932134,39.5475907 65.1503883,39.4073365 65.1453774,39.2631953 L65.037294,36.1631893 L58.2313489,36.1632043 L57.9995402,36.1671008 C57.8450768,36.1722952 57.690808,36.1826806 57.5369931,36.198244 C53.7990735,36.5764566 51.0556949,39.872905 51.3201143,43.6121789 L51.3379115,43.8203562 L54.0921397,71.2875037 L54.1180105,71.5153722 C54.6265661,75.5243947 57.852694,78.6389767 61.8607019,78.9903541 L62.0883923,79.0072797 L90.7355679,80.7561336 L90.8611091,80.7703526 C91.1916767,80.8252821 91.4856776,81.0144445 91.6735869,81.2931071 L91.7389441,81.4017136 L101.609494,99.8951946 L101.680338,100.011843 C101.783026,100.161508 101.917857,100.286903 102.075527,100.378383 C102.625854,100.697682 103.320631,100.538297 103.682031,100.02875 L103.74577,99.9291373 L112.969106,83.8881513 L113.033154,83.7882275 C113.235852,83.5032663 113.55042,83.3187989 113.896668,83.2813242 L114.027839,83.2742523 L126.020589,83.2742523 L126.252317,83.271162 C130.794933,83.1498663 134.455275,79.4729691 134.576025,74.9098066 L134.579101,74.6770306 L134.579101,68.7348698 L134.584698,68.6165884 C134.643943,67.9937795 135.166218,67.5066953 135.801746,67.5066953 C136.437273,67.5066953 136.959548,67.9937795 137.018793,68.6165884 L137.02439,68.7348698 L137.02439,74.6770306 L137.021549,74.9307148 C136.889237,80.8327262 132.151702,85.5928661 126.276729,85.7276656 L126.020589,85.7306013 L114.73335,85.7298061 L105.863236,101.157688 L105.767788,101.314674 C104.747455,102.903614 102.6875,103.457681 101.013278,102.593498 L100.852508,102.505427 L100.65946,102.385266 C100.218616,102.091515 99.8462016,101.705391 99.5678612,101.253484 L99.4544069,101.05586 L89.9063285,83.1661965 L61.940058,81.4591052 L61.6802594,81.4401824 C56.5008615,81.0016984 52.3299752,76.9750238 51.6882932,71.7936962 L51.6591617,71.5336788 L50.3231738,58.2121971 L39.4375615,58.2121466 L30.0014454,73.919212 C29.716898,74.3928804 29.3302975,74.7953269 28.8710854,75.0975385 L28.6955347,75.2061127 C26.9945248,76.1930362 24.833502,75.6555556 23.7802551,74.0153601 L23.6848065,73.858374 L14.6887895,58.2121466 L11.0281916,58.2128125 C5.03536592,58.2128125 0.161461366,53.4004738 0.0272311517,47.412926 L0.0243902439,47.1592418 L0.0243902439,20.0243182 C0.0243902439,14.5803881 3.96697405,9.96139048 9.29344514,9.10892739 L9.55224691,9.07063106 L39.5941254,4.98596517 C40.2632716,4.89498421 40.8791444,5.36613322 40.9697157,6.03830593 Z M105.715692,47.9756172 C106.154318,48.0773464 106.427799,48.5169992 106.326528,48.9576093 C106.15324,49.7115474 106.009908,50.457659 105.896508,51.1960019 C108.498015,51.0646902 111.26734,50.5429455 114.20557,49.6288465 C114.635584,49.4950667 115.092142,49.7367891 115.225319,50.1687486 C115.358497,50.6007082 115.117863,51.0593305 114.687848,51.1931104 C111.678961,52.1291912 108.823716,52.6736011 106.123191,52.8241916 L105.691826,52.8445913 C105.574707,54.0871163 105.545048,55.3070583 105.602744,56.5047065 L105.709707,56.4784465 C107.347807,56.0972867 108.942982,55.9381052 110.392993,56.0039891 L110.549832,56.0120766 L110.917276,55.3376019 L111.131263,54.9378573 C111.343385,54.5390063 111.837222,54.3884109 112.234277,54.601493 C112.631332,54.8145751 112.781249,55.3106448 112.569127,55.7094958 L112.285987,56.2364232 L112.446359,56.2719996 C114.720651,56.7906144 116.374593,58.0254247 116.833742,59.9937747 L116.873269,60.1804571 C117.864892,65.3830385 115.145805,67.9594527 109.250359,67.5643662 C108.801192,67.534265 108.461362,67.1440946 108.491328,66.6928962 C108.521294,66.2416978 108.909707,65.9003311 109.358874,65.9304322 L109.854339,65.9571316 C114.37577,66.1385739 116.021392,64.419272 115.272159,60.4883987 C115.004831,59.0858493 113.648431,58.1628478 111.697616,57.8027891 L111.440732,57.7593596 L111.251707,58.0869997 C111.102965,58.343702 110.955203,58.5945743 110.808408,58.8396215 L110.370916,59.5572917 C108.632475,62.3581061 107.031806,64.3207457 105.549761,65.4531667 L105.371468,65.5858077 C102.993949,67.306359 100.779883,66.9191115 99.1408511,64.4927589 C97.1460088,61.53968 99.3047576,58.7402929 103.392291,57.1796178 L103.829585,57.0199581 L103.995508,56.9633717 C103.911129,55.6205431 103.93045,54.2530403 104.053349,52.8612041 C102.42083,52.8283103 100.848632,52.6417055 99.3368534,52.301517 C98.897575,52.2026683 98.6212414,51.7648194 98.719645,51.3235542 C98.8180487,50.8822889 99.2539261,50.6047055 99.6932046,50.7035543 C101.144571,51.0301484 102.661183,51.2049096 104.243322,51.2272751 C104.369197,50.356319 104.533995,49.4773273 104.738121,48.5892156 C104.839393,48.1486055 105.277066,47.8738881 105.715692,47.9756172 Z M135.801746,47.0851778 C136.437273,47.0851778 136.959548,47.7448335 137.018793,48.5883003 L137.02439,48.7484882 L137.02439,63.4350937 L137.018793,63.5952816 C136.959548,64.4387484 136.437273,65.0984041 135.801746,65.0984041 C135.166218,65.0984041 134.643943,64.4387484 134.584698,63.5952816 L134.579101,63.4350937 L134.579101,48.7484882 L134.584698,48.5883003 C134.643943,47.7448335 135.166218,47.0851778 135.801746,47.0851778 Z M104.156268,58.6388277 L104.043609,58.6793916 L103.840016,58.7571812 L103.44697,58.918446 C100.634604,60.1280995 99.3741778,61.9217499 100.489798,63.5732665 C101.612073,65.2346337 102.784471,65.4396901 104.418576,64.2571293 C104.70351,64.0509293 104.997136,63.8043794 105.29925,63.5175638 L105.201,63.2288245 C104.707248,61.7339752 104.359072,60.2037878 104.156268,58.6388277 Z M109.626327,57.633267 L109.53409,57.6338585 C108.458678,57.6479794 107.289569,57.7917618 106.077579,58.0737727 L105.739343,58.1563956 C105.899158,59.5127437 106.174908,60.8396664 106.566432,62.1376068 C107.469688,61.0391198 108.435984,59.6295206 109.461448,57.9112253 L109.626327,57.633267 Z M77.0924319,0 L77.4534902,0.0142234492 C82.5408907,0.311693908 86.4437838,4.63179629 86.2775579,9.71868467 L86.2665551,9.96148401 L84.5660422,39.2841693 C84.1265741,45.2498722 79.0510282,49.7580563 73.1446688,49.5129866 L73.1448284,52.1948772 C73.1448284,52.6470786 72.7798973,53.0136602 72.329732,53.0136602 C72.1861523,53.0136602 72.0451201,52.9755624 71.9209066,52.9032218 L64.5799461,48.6279288 C64.1904996,48.4011196 64.0578282,47.9001176 64.2836163,47.5089097 C64.3548782,47.3854389 64.4570312,47.2828239 64.5799461,47.2112396 L71.9209066,42.9359466 C72.3103531,42.7091374 72.8090992,42.8424088 73.0348872,43.2336168 C73.1069021,43.3583921 73.1448284,43.5000621 73.1448284,43.6442913 L73.1442428,47.0530034 L73.1919742,47.0563227 C77.7311153,47.2721062 81.6515992,43.8765796 82.1072517,39.3348109 L82.1332426,39.0179995 L83.8253981,9.81874469 C84.0477519,5.98152827 81.1313327,2.68978112 77.3113935,2.46642166 C76.9779641,2.44692538 76.6437137,2.45168255 76.311254,2.48059291 L75.9794879,2.51755064 L67.6270611,3.65319443 C66.9579149,3.74417539 66.3420421,3.27302638 66.2514708,2.60085367 C66.1662272,1.96822054 66.5766838,1.38299119 67.1831393,1.24047831 L67.2990734,1.21904174 L75.6515002,0.0833979398 C76.0097328,0.0346905852 76.3702697,0.00686812313 76.7313017,0 L77.0924319,0 Z M136.994988,39.6109526 C137.008051,39.7900986 137.016765,39.9695246 137.021122,40.1490706 L137.02439,40.4184595 L137.02439,43.9434437 L137.018793,44.0617251 C136.959548,44.684534 136.437273,45.1716183 135.801746,45.1716183 C135.166218,45.1716183 134.643943,44.684534 134.584698,44.0617251 L134.579101,43.9434437 L134.579101,40.4184595 L134.573382,40.1042191 L134.556233,39.7903986 C134.216587,35.1326011 130.242926,31.6143014 125.626689,31.8302866 L125.395356,31.8442098 L90.7507198,34.3933957 L90.6328767,34.3964294 C90.0102007,34.3825741 89.4884509,33.894922 89.4420231,33.2582259 C89.3955953,32.6215298 89.8410366,32.0627109 90.4550564,31.9578582 L90.5720818,31.9436101 L125.216718,29.3944241 L125.468792,29.3787376 L125.72347,29.3687045 C131.568986,29.2055671 136.563443,33.6928764 136.994988,39.6109526 Z M26.6406484,23.239308 C27.1403649,23.4839015 27.456726,23.9604035 27.5250329,24.4809582 L33.5062921,37.1427818 C33.8855657,37.9456653 33.5536156,38.9095005 32.7648608,39.2955679 C32.0053191,39.6673366 31.0991538,39.3677754 30.6943987,38.6281381 L30.6499582,38.5408556 L29.5341402,36.179565 L22.285488,36.179565 L21.1895865,38.5009713 C20.8103129,39.3038549 19.8634388,39.6417511 19.074684,39.2556837 C18.3151423,38.8839151 17.9791945,37.9763838 18.294025,37.1927317 L18.3332526,37.1028976 L24.3362526,24.3939236 C24.4307427,23.9479947 24.7093214,23.5471403 25.1292635,23.3154149 C25.5724577,23.0411491 26.1385853,22.993566 26.6406484,23.239308 Z M25.9104589,28.50702 L23.8325409,32.9044329 L27.9870873,32.9044329 L25.9104589,28.50702 Z M60.3441339,3.40404904 C60.4293775,4.03668218 60.0189209,4.62191153 59.4124654,4.76442441 L59.2965313,4.78586098 L46.6423217,6.50639981 C45.9731755,6.59738076 45.3573028,6.12623175 45.2667315,5.45405905 C45.1814879,4.82142591 45.5919444,4.23619656 46.1983999,4.09368368 L46.314334,4.07224711 L58.9685436,2.35170828 C59.6376898,2.26072733 60.2535626,2.73187634 60.3441339,3.40404904 Z" id="Shape" fill="#53B3E0"></path>
        </g>
        <path d="M172.101562,67.7773438 C172.791918,67.7773438 173.351562,68.3369878 173.351562,69.0273438 C173.351562,69.6745524 172.859688,70.2068776 172.229368,70.2708901 L172.101562,70.2773438 L163.925781,70.2773438 C163.235425,70.2773438 162.675781,69.7176997 162.675781,69.0273438 C162.675781,68.3801351 163.167656,67.8478099 163.797976,67.7837974 L163.925781,67.7773438 L172.101562,67.7773438 Z M178.425781,60 C179.116137,60 179.675781,60.5596441 179.675781,61.25 C179.675781,61.8972087 179.183907,62.4295339 178.553586,62.4935464 L178.425781,62.5 L161.25,62.5 C160.559644,62.5 160,61.9403559 160,61.25 C160,60.6027913 160.491875,60.0704661 161.122195,60.0064536 L161.25,60 L178.425781,60 Z M185.425781,60 C186.116137,60 186.675781,60.5596441 186.675781,61.25 C186.675781,61.8972087 186.183907,62.4295339 185.553586,62.4935464 L185.425781,62.5 L183.20459,62.5 C182.514234,62.5 181.95459,61.9403559 181.95459,61.25 C181.95459,60.6027913 182.446465,60.0704661 183.076785,60.0064536 L183.20459,60 L185.425781,60 Z" id="Line-8" fill="#53B3E0" fill-rule="nonzero"></path>
        <path d="M108.146973,141.777344 C108.837329,141.777344 109.396973,142.336988 109.396973,143.027344 C109.396973,143.674552 108.905098,144.206878 108.274778,144.27089 L108.146973,144.277344 L99.9711914,144.277344 C99.2808355,144.277344 98.7211914,143.7177 98.7211914,143.027344 C98.7211914,142.380135 99.2130661,141.84781 99.8433862,141.783797 L99.9711914,141.777344 L108.146973,141.777344 Z M103.471191,133 C104.161547,133 104.721191,133.559644 104.721191,134.25 C104.721191,134.897209 104.229317,135.429534 103.598997,135.493546 L103.471191,135.5 L86.2954102,135.5 C85.6050542,135.5 85.0454102,134.940356 85.0454102,134.25 C85.0454102,133.602791 85.5372848,133.070466 86.1676049,133.006454 L86.2954102,133 L103.471191,133 Z M80.4711914,133 C81.1615473,133 81.7211914,133.559644 81.7211914,134.25 C81.7211914,134.897209 81.2293167,135.429534 80.5989966,135.493546 L80.4711914,135.5 L76.25,135.5 C75.5596441,135.5 75,134.940356 75,134.25 C75,133.602791 75.4918747,133.070466 76.1221948,133.006454 L76.25,133 L80.4711914,133 Z" id="Line-8" fill="#53B3E0" fill-rule="nonzero"></path>
    </g>
</svg>
