<svg width="250" height="200" xmlns="http://www.w3.org/2000/svg"><g fill="none" fill-rule="evenodd"><path d="M202 65a7 7 0 010 14h-40a7 7 0 010 14h22a7 7 0 010 14h-10.174c-4.874 0-8.826 3.134-8.826 7 0 2.577 2 4.91 6 7a7 7 0 010 14H88a7 7 0 010-14H49a7 7 0 010-14h40a7 7 0 000-14H64a7 7 0 010-14h40a7 7 0 010-14h98zm0 28a7 7 0 110 14 7 7 0 010-14z" fill="#F2F6FA"/><path d="M137.978 51.455l.333.011c3.82.224 6.737 3.516 6.514 7.353l-1.423 24.549-8.439.322a.82.82 0 00-.337-.649l-.094-.059-7.485-4.015a.817.817 0 00-1.199.75l.104 2.99h-6.72l-.314.005a9.318 9.318 0 00-6.3 2.737l-.415.149-.214.547a9.414 9.414 0 00-2.105 6.68l.02.242 1.173 11.689h-11.33l-.128.007c-.378.04-.72.256-.92.587l-9.791 16.3-.07.103a1.22 1.22 0 01-2.036-.123l-9.349-16.26-.064-.1a1.221 1.221 0 00-.994-.514h-4.367l-.232-.003c-4.62-.123-8.326-3.923-8.326-8.594V69.024l.003-.234c.112-4.2 3.24-7.719 7.407-8.285l30.042-4.085.116-.021a1.228 1.228 0 00.92-1.428l4.303-.591.006.074c.085.63.631 1.084 1.25 1.063l.125-.01 12.655-1.721.115-.022a1.228 1.228 0 00.915-1.457l5.915-.814.01.108c.084.63.631 1.083 1.25 1.063l.125-.01 8.352-1.136.332-.037a6.897 6.897 0 011-.015zM87.64 72.239a1.56 1.56 0 00-1.512.076 1.61 1.61 0 00-.793 1.079l-6.003 12.709-.039.09a1.625 1.625 0 00.78 2.063 1.572 1.572 0 002.116-.755l1.095-2.321h7.25l1.115 2.36.044.088a1.57 1.57 0 002.07.668 1.626 1.626 0 00.742-2.153l-5.98-12.663a1.61 1.61 0 00-.884-1.242zm-.73 5.268l2.076 4.397h-4.154l2.077-4.397z" fill="#CEF"/><path d="M186.627 80.83c4.616-.216 8.59 3.303 8.93 7.96l.016.314.006.314v3.525l.006.119c.059.623.581 1.11 1.217 1.11v1.913c-.636 0-1.158.66-1.217 1.503l-.006.16v14.687l.006.16c.059.844.581 1.503 1.217 1.503v2.409c-.636 0-1.158.487-1.217 1.11l-.006.118v5.942l-.003.233c-.12 4.563-3.781 8.24-8.324 8.361l-.231.003h-11.993l-.131.007a1.224 1.224 0 00-.864.507l-.064.1-9.223 16.041-.064.1a1.22 1.22 0 01-2.002-.017l-.07-.117-9.871-18.493-.065-.109a1.222 1.222 0 00-.813-.523l-.125-.014-28.648-1.749-.227-.017c-4.008-.351-7.234-3.466-7.743-7.475l-.026-.227-2.754-27.468-.018-.208c-.264-3.74 2.48-7.036 6.217-7.414a6.5 6.5 0 01.463-.03l.231-.005h6.806l.108 3.1a.813.813 0 001.248.665l7.188-4.53a.817.817 0 00.366-.855l8.459-.235-.273 4.71-.026.317c-.455 4.542-4.376 7.937-8.915 7.721l-.048-.003v-3.409a.813.813 0 00-1.224-.708l-7.34 4.275a.82.82 0 000 1.417l7.34 4.275a.817.817 0 001.224-.708v-2.682c5.907.245 10.983-4.263 11.422-10.229l.303-5.226 4.599-.622c.112.507.533.888 1.042.951l.123.01.118-.004 34.644-2.549zm-19.911 16.146a.815.815 0 00-.978.613 32.574 32.574 0 00-.495 2.638 22.1 22.1 0 01-4.55-.523.819.819 0 00-.356 1.598 23.6 23.6 0 004.716.56 27.196 27.196 0 00-.057 4.101l-.166.057-.438.16c-4.087 1.56-6.246 4.36-4.251 7.313 1.639 2.426 3.853 2.813 6.23 1.093l.179-.133c1.482-1.132 3.082-3.095 4.82-5.896l.438-.717c.147-.245.295-.496.444-.753l.189-.328.257.044c1.95.36 3.307 1.283 3.574 2.685.75 3.931-.896 5.65-5.418 5.47l-.495-.028a.816.816 0 00-.868.763c-.03.451.31.841.76.871 5.895.395 8.614-2.181 7.622-7.384l-.04-.186c-.458-1.969-2.112-3.203-4.387-3.722l-.16-.036.283-.527a.82.82 0 00-.335-1.108.813.813 0 00-1.103.337l-.214.4-.367.674-.157-.008c-1.45-.066-3.045.093-4.683.474l-.107.027a25.757 25.757 0 01.089-3.66l.431-.02c2.7-.151 5.556-.696 8.565-1.632a.82.82 0 00-.482-1.564c-2.939.914-5.708 1.436-8.31 1.567.114-.738.257-1.484.43-2.238a.819.819 0 00-.61-.982zm-1.56 10.663a24.74 24.74 0 001.045 4.59l.098.289a8.691 8.691 0 01-.88.74c-1.635 1.182-2.807.977-3.93-.685-1.115-1.651.146-3.445 2.958-4.655l.393-.16.204-.079zm5.47-1.006l-.165.278c-1.025 1.719-1.991 3.128-2.895 4.227a23.13 23.13 0 01-.827-3.982l.339-.082a16.31 16.31 0 013.456-.44h.092z" fill="#FFF"/><path d="M101.97 55.038a1.228 1.228 0 01-.932 1.36l-.116.022-30.042 4.085c-4.167.566-7.295 4.086-7.407 8.285l-.003.234V96.16c0 4.67 3.707 8.471 8.326 8.594l.232.003h4.367c.397 0 .766.194.994.514l.064.1 9.35 16.26a1.22 1.22 0 002.036.123l.069-.103 9.792-16.3c.199-.331.54-.547.92-.587l.127-.007h11.33l-1.172-11.69-.021-.242c-.38-5.075 3.338-9.557 8.408-10.07.208-.02.417-.035.626-.042l.313-.005h6.72l-.103-2.99a.817.817 0 011.199-.75l7.485 4.015a.82.82 0 01.05 1.416l-7.189 4.53a.813.813 0 01-1.248-.665l-.108-3.1h-6.806l-.231.004a6.898 6.898 0 00-.463.031c-3.738.378-6.481 3.675-6.217 7.414l.018.208 2.754 27.468.026.227c.509 4.01 3.735 7.124 7.743 7.475l.227.017 28.648 1.75.125.013c.33.055.625.244.813.523l.065.109 9.87 18.493.071.117a1.22 1.22 0 002.002.017l.064-.1 9.223-16.04.064-.1c.203-.286.517-.47.864-.508l.13-.007h11.994l.231-.003c4.543-.121 8.203-3.798 8.324-8.361l.003-.233v-5.942l.006-.118a1.224 1.224 0 011.217-1.11c.635 0 1.158.487 1.217 1.11l.005.118v5.942l-.002.254c-.133 5.902-4.87 10.662-10.745 10.797l-.256.003-11.288-.001-8.87 15.428-.095.157a3.659 3.659 0 01-4.755 1.278l-.16-.088-.194-.12a3.677 3.677 0 01-1.091-1.132l-.114-.197-9.548-17.89-27.966-1.707-.26-.019c-5.18-.438-9.35-4.465-9.992-9.646l-.029-.26-1.336-13.322h-10.885L91 122.92a3.677 3.677 0 01-1.13 1.179l-.175.108a3.658 3.658 0 01-4.916-1.19l-.095-.158-8.996-15.646h-3.66c-5.994 0-10.868-4.812-11.002-10.8l-.003-.253V69.024c0-5.444 3.943-10.063 9.27-10.915l.258-.038 30.042-4.085c.67-.091 1.285.38 1.376 1.052zm64.746 41.938a.819.819 0 01.61.982c-.173.754-.316 1.5-.43 2.238 2.602-.131 5.371-.653 8.31-1.567a.82.82 0 01.482 1.564c-3.009.936-5.864 1.48-8.565 1.631l-.431.02a25.757 25.757 0 00-.09 3.66l.108-.026c1.638-.38 3.233-.54 4.683-.474l.157.008.367-.674.214-.4a.813.813 0 011.103-.337.82.82 0 01.335 1.108l-.283.527.16.036c2.275.519 3.929 1.753 4.388 3.722l.04.186c.99 5.203-1.728 7.78-7.624 7.384a.818.818 0 01-.759-.871.816.816 0 01.868-.763l.495.027c4.522.182 6.167-1.538 5.418-5.469-.267-1.402-1.624-2.325-3.574-2.685l-.257-.044-.19.328c-.148.257-.296.508-.443.753l-.437.717c-1.739 2.801-3.34 4.764-4.821 5.896l-.179.133c-2.377 1.72-4.591 1.333-6.23-1.093-1.995-2.953.164-5.753 4.251-7.313l.438-.16.166-.057a27.196 27.196 0 01.057-4.102 23.6 23.6 0 01-4.716-.56.819.819 0 01.356-1.597 22.1 22.1 0 004.55.523c.126-.87.291-1.75.495-2.638a.815.815 0 01.978-.613zm30.086-.89c.635 0 1.158.659 1.217 1.502l.005.16v14.687l-.005.16c-.06.844-.582 1.503-1.217 1.503-.636 0-1.158-.66-1.217-1.503l-.006-.16V97.748l.006-.16c.059-.843.581-1.503 1.217-1.503zm-31.646 11.553l-.112.04-.204.078-.393.161c-2.812 1.21-4.073 3.004-2.957 4.655 1.122 1.662 2.294 1.867 3.929.684.285-.206.578-.453.88-.74l-.098-.288a24.74 24.74 0 01-1.045-4.59zm5.47-1.006h-.092a16.31 16.31 0 00-3.456.44l-.339.083a23.13 23.13 0 00.827 3.982c.904-1.099 1.87-2.508 2.895-4.227l.165-.278zM138.092 49l.361.014c5.088.298 8.99 4.618 8.825 9.705l-.011.242-1.701 29.323c-.44 5.966-5.515 10.474-11.421 10.229v2.682a.817.817 0 01-1.224.708l-7.341-4.275a.82.82 0 010-1.417l7.34-4.275a.813.813 0 011.225.708v3.409l.047.003c4.54.216 8.46-3.18 8.915-7.721l.026-.317 1.692-29.2c.223-3.836-2.694-7.128-6.514-7.352a6.897 6.897 0 00-1 .015l-.332.037-8.352 1.135a1.224 1.224 0 01-1.376-1.052 1.228 1.228 0 01.932-1.36l.116-.022 8.353-1.136a9.332 9.332 0 011.08-.083h.36zm59.903 39.611c.013.18.022.359.026.538l.003.27v3.524l-.005.119a1.225 1.225 0 01-1.217 1.11 1.225 1.225 0 01-1.217-1.11l-.006-.119v-3.525l-.006-.314-.017-.314c-.34-4.657-4.313-8.176-8.93-7.96l-.23.014-34.645 2.55-.118.002a1.225 1.225 0 01-1.191-1.138 1.227 1.227 0 011.013-1.3l.117-.014 34.645-2.55.252-.015.254-.01c5.846-.163 10.84 4.324 11.272 10.242zM87.641 72.239c.5.245.816.721.884 1.242l5.981 12.662c.38.803.048 1.767-.741 2.153a1.57 1.57 0 01-2.07-.668l-.045-.087-1.116-2.361h-7.249L82.19 87.5a1.572 1.572 0 01-2.115.755 1.625 1.625 0 01-.781-2.063l.04-.09 6.002-12.71c.095-.445.373-.846.793-1.078a1.56 1.56 0 011.512-.076zm-.73 5.268l-2.078 4.397h4.154l-2.077-4.397zm34.433-25.103a1.228 1.228 0 01-.932 1.36l-.115.022-12.655 1.72a1.224 1.224 0 01-1.375-1.052 1.228 1.228 0 01.931-1.36l.116-.022 12.655-1.72a1.223 1.223 0 011.375 1.052z" fill="#53B3E0"/><path d="M172.102 67.777a1.25 1.25 0 01.127 2.494l-.127.006h-8.176a1.25 1.25 0 01-.128-2.493l.128-.007h8.176zM178.426 60a1.25 1.25 0 01.128 2.494l-.128.006H161.25a1.25 1.25 0 01-.128-2.494l.128-.006h17.176zm7 0a1.25 1.25 0 01.128 2.494l-.128.006h-2.221a1.25 1.25 0 01-.128-2.494l.128-.006h2.22zm-77.279 81.777a1.25 1.25 0 01.128 2.494l-.128.006h-8.176a1.25 1.25 0 01-.128-2.493l.128-.007h8.176zM103.471 133a1.25 1.25 0 01.128 2.494l-.128.006H86.295a1.25 1.25 0 01-.127-2.494l.127-.006h17.176zm-23 0a1.25 1.25 0 01.128 2.494l-.128.006H76.25a1.25 1.25 0 01-.128-2.494l.128-.006h4.221z" fill="#53B3E0" fill-rule="nonzero"/></g></svg>