<svg xmlns="http://www.w3.org/2000/svg" viewBox="0 0 24 24"><path d="M20.625 3a.754.754 0 01-.643-.364.747.747 0 01.258-1.029L22.115.482a.747.747 0 011.029.257.747.747 0 01-.258 1.029l-1.875 1.125a.748.748 0 01-.386.107zM22.5 9.375a.751.751 0 01-.386-.107l-1.875-1.125a.747.747 0 01-.258-1.029.757.757 0 01.644-.364c.136 0 .269.037.385.107l1.875 1.125a.747.747 0 01.258 1.029.753.753 0 01-.643.364zm-1.875-3.75a.75.75 0 010-1.5h2.25a.75.75 0 010 1.5h-2.25zm-16.5 18a3.754 3.754 0 01-3.75-3.75c0-3.859 1.674-6.335 4.5-6.702v-.798c0-.96.615-1.808 1.5-2.121V7.125h-3a.75.75 0 01-.75-.75 5.256 5.256 0 015.25-5.25h6.75a.75.75 0 01.75.75v4.5a.75.75 0 01-.75.75h-3.013c.811.951 2.205 2.25 3.763 2.25a.75.75 0 010 1.5c-1.889 0-3.473-1.233-4.5-2.317v1.696a2.26 2.26 0 011.5 2.121v.798c2.825.367 4.5 2.844 4.5 6.702a3.754 3.754 0 01-3.75 3.75h-9zm3-12a.75.75 0 00-.75.75v1.5a.75.75 0 01-.75.75c-1.401 0-3.75.682-3.75 5.25a2.252 2.252 0 002.25 2.25h9a2.252 2.252 0 002.25-2.25c0-4.568-2.35-5.25-3.75-5.25a.75.75 0 01-.75-.75v-1.5a.75.75 0 00-.75-.75h-3zm2.25-1.5v-3.75a.46.46 0 01.002-.036c.001-.02.004-.042.007-.064a.671.671 0 01.057-.206l.029-.057a.648.648 0 01.138-.179l.043-.037.059-.045.022-.015a.958.958 0 01.184-.081.703.703 0 01.21-.031h3.75v-3h-6c-1.782 0-3.322 1.288-3.674 3h2.924a.75.75 0 01.75.75v3.75h1.499zm8.25-3.75a.75.75 0 01-.75-.75v-2.25a.75.75 0 011.5 0v2.25a.75.75 0 01-.75.75z"/></svg>