<?xml version="1.0" encoding="utf-8"?>
<!-- Generator: Adobe Illustrator 22.1.0, SVG Export Plug-In . SVG Version: 6.00 Build 0)  -->
<svg version="1.1" id="Layer_1" xmlns="http://www.w3.org/2000/svg" xmlns:xlink="http://www.w3.org/1999/xlink" x="0px" y="0px"
	 viewBox="0 0 24 24" style="enable-background:new 0 0 24 24;" xml:space="preserve">
<title>cleaning-spray</title>
<g>
	<path d="M20.625,3c-0.262,0-0.509-0.14-0.643-0.364c-0.103-0.172-0.133-0.373-0.084-0.568c0.049-0.194,0.17-0.358,0.342-0.461
		l1.875-1.125c0.116-0.07,0.25-0.107,0.385-0.107c0.262,0,0.509,0.14,0.644,0.364c0.103,0.172,0.133,0.373,0.084,0.568
		c-0.049,0.194-0.17,0.358-0.342,0.461l-1.875,1.125C20.895,2.963,20.761,3,20.625,3z"/>
	<path d="M22.5,9.375c-0.136,0-0.269-0.037-0.386-0.107l-1.875-1.125c-0.172-0.103-0.293-0.267-0.342-0.461
		c-0.049-0.194-0.019-0.396,0.084-0.568c0.135-0.224,0.382-0.364,0.644-0.364c0.136,0,0.269,0.037,0.385,0.107l1.875,1.125
		c0.172,0.103,0.293,0.267,0.342,0.461c0.049,0.194,0.019,0.396-0.084,0.568C23.008,9.236,22.762,9.375,22.5,9.375z"/>
	<path d="M20.625,5.625c-0.414,0-0.75-0.336-0.75-0.75s0.336-0.75,0.75-0.75h2.25c0.414,0,0.75,0.336,0.75,0.75
		s-0.336,0.75-0.75,0.75H20.625z"/>
	<path d="M4.125,23.625c-2.068,0-3.75-1.682-3.75-3.75c0-3.859,1.674-6.335,4.5-6.702v-0.798c0-0.96,0.615-1.808,1.5-2.121V7.125h-3
		c-0.414,0-0.75-0.336-0.75-0.75c0-2.895,2.355-5.25,5.25-5.25h6.75c0.414,0,0.75,0.336,0.75,0.75v4.5c0,0.414-0.336,0.75-0.75,0.75
		h-3.013c0.811,0.951,2.205,2.25,3.763,2.25c0.414,0,0.75,0.336,0.75,0.75s-0.336,0.75-0.75,0.75c-1.889,0-3.473-1.233-4.5-2.317
		v1.696c0.885,0.314,1.5,1.162,1.5,2.121v0.798c2.825,0.367,4.5,2.844,4.5,6.702c0,2.068-1.682,3.75-3.75,3.75H4.125z M7.125,11.625
		c-0.414,0-0.75,0.336-0.75,0.75v1.5c0,0.414-0.336,0.75-0.75,0.75c-1.401,0-3.75,0.682-3.75,5.25c0,1.241,1.009,2.25,2.25,2.25h9
		c1.241,0,2.25-1.009,2.25-2.25c0-4.568-2.35-5.25-3.75-5.25c-0.414,0-0.75-0.336-0.75-0.75v-1.5c0-0.414-0.336-0.75-0.75-0.75
		H7.125z M9.375,10.125v-3.75c0-0.011,0.001-0.024,0.002-0.036c0.001-0.02,0.004-0.042,0.007-0.064
		C9.386,6.251,9.39,6.229,9.395,6.208C9.4,6.186,9.406,6.165,9.413,6.144c0.01-0.031,0.018-0.053,0.028-0.075
		C9.446,6.057,9.464,6.024,9.47,6.012c0.014-0.026,0.028-0.049,0.043-0.07C9.52,5.932,9.542,5.905,9.55,5.896
		c0.02-0.024,0.038-0.044,0.058-0.063c0.008-0.008,0.034-0.029,0.043-0.037C9.671,5.78,9.69,5.765,9.71,5.751
		c0.007-0.005,0.015-0.01,0.022-0.015c0.014-0.009,0.036-0.02,0.054-0.029c0.024-0.012,0.048-0.023,0.073-0.033
		c0.018-0.007,0.037-0.013,0.057-0.019c0.032-0.009,0.056-0.015,0.081-0.019c0.026-0.004,0.051-0.007,0.076-0.008
		c0.008-0.002,0.03-0.004,0.053-0.004h3.75v-3h-6c-1.782,0-3.322,1.288-3.674,3h2.924c0.414,0,0.75,0.336,0.75,0.75v3.75H9.375z"/>
	<path d="M17.625,6.375c-0.414,0-0.75-0.336-0.75-0.75v-2.25c0-0.414,0.336-0.75,0.75-0.75s0.75,0.336,0.75,0.75v2.25
		C18.375,6.039,18.039,6.375,17.625,6.375z"/>
</g>
</svg>
