<svg xmlns="http://www.w3.org/2000/svg" viewBox="0 0 24 24"><path d="M.75 24a.75.75 0 010-1.5h2.579c-.731-.978-.929-2.288-.973-3.555-.46.261-.762.755-.762 1.305a.75.75 0 01-1.5 0c0-1.654 1.346-3 3-3h6.655a1.49 1.49 0 011.293.738c.204.345.261.749.161 1.137-.046.177-.089.368-.133.567-.191.847-.436 1.933-1.068 2.809h2.749V11.25a.75.75 0 00-.75-.75H7.5v2.25a.75.75 0 01-1.5 0V10.5H4.5a2.252 2.252 0 01-2.25-2.25v-6A2.252 2.252 0 014.5 0h17.25A2.252 2.252 0 0124 2.25v21a.75.75 0 01-.75.75H.75zm21.75-1.5v-9h-2.25a.75.75 0 00-.75.75v8.25h3zm-4.5 0v-8.25A2.252 2.252 0 0120.25 12h2.25V9h-3.75a.75.75 0 010-1.5h3.75V6h-3.75a.75.75 0 010-1.5h3.75V2.25a.75.75 0 00-.75-.75H4.5a.75.75 0 00-.75.75v6c0 .414.336.75.75.75H12a2.252 2.252 0 012.25 2.25V22.5H18zM3.85 18.75c.044 2.018.406 3.75 2.994 3.75 2.054 0 2.397-1.521 2.76-3.13.049-.218.096-.426.146-.62h-5.9z"/><path d="M7.5 7.5c-1.241 0-2.25-1.009-2.25-2.25S6.259 3 7.5 3s2.25 1.009 2.25 2.25S8.741 7.5 7.5 7.5zm0-3a.75.75 0 100 1.5.75.75 0 000-1.5z"/></svg>