<?xml version="1.0" encoding="utf-8"?>
<!-- Generator: Adobe Illustrator 22.1.0, SVG Export Plug-In . SVG Version: 6.00 Build 0)  -->
<svg version="1.1" id="Regular" xmlns="http://www.w3.org/2000/svg" xmlns:xlink="http://www.w3.org/1999/xlink" x="0px" y="0px"
	 viewBox="0 0 24 24" style="enable-background:new 0 0 24 24;" xml:space="preserve">
<title>coffee-espresso-machine</title>
<g>
	<path d="M0.75,24C0.336,24,0,23.664,0,23.25s0.336-0.75,0.75-0.75h2.579c-0.731-0.978-0.929-2.288-0.973-3.555
		C1.896,19.206,1.594,19.7,1.594,20.25c0,0.414-0.336,0.75-0.75,0.75s-0.75-0.336-0.75-0.75c0-1.654,1.346-3,3-3h6.655
		c0.127,0,0.254,0.016,0.376,0.048c0.387,0.1,0.713,0.344,0.917,0.69c0.204,0.345,0.261,0.749,0.161,1.137
		c-0.046,0.177-0.089,0.368-0.133,0.567c-0.191,0.847-0.436,1.933-1.068,2.809h2.749V11.25c0-0.414-0.336-0.75-0.75-0.75H7.5v2.25
		c0,0.414-0.336,0.75-0.75,0.75S6,13.164,6,12.75V10.5H4.5c-1.241,0-2.25-1.009-2.25-2.25v-6C2.25,1.009,3.259,0,4.5,0h17.25
		C22.991,0,24,1.009,24,2.25v21c0,0.414-0.336,0.75-0.75,0.75H0.75z M22.5,22.5v-9h-2.25c-0.414,0-0.75,0.336-0.75,0.75v8.25H22.5z
		 M18,22.5v-8.25c0-1.241,1.009-2.25,2.25-2.25h2.25V9h-3.75C18.336,9,18,8.664,18,8.25s0.336-0.75,0.75-0.75h3.75V6h-3.75
		C18.336,6,18,5.664,18,5.25s0.336-0.75,0.75-0.75h3.75V2.25c0-0.414-0.336-0.75-0.75-0.75H4.5c-0.414,0-0.75,0.336-0.75,0.75v6
		C3.75,8.664,4.086,9,4.5,9H12c1.241,0,2.25,1.009,2.25,2.25V22.5H18z M3.85,18.75c0.044,2.018,0.406,3.75,2.994,3.75
		c2.054,0,2.397-1.521,2.76-3.13C9.653,19.152,9.7,18.944,9.75,18.75L3.85,18.75z"/>
	<path d="M7.5,7.5c-1.241,0-2.25-1.009-2.25-2.25S6.259,3,7.5,3s2.25,1.009,2.25,2.25S8.741,7.5,7.5,7.5z M7.5,4.5
		c-0.414,0-0.75,0.336-0.75,0.75S7.086,6,7.5,6s0.75-0.336,0.75-0.75S7.914,4.5,7.5,4.5z"/>
</g>
</svg>
