<svg width="24" height="24" xmlns="http://www.w3.org/2000/svg"><path d="M12.294.092a25.082 25.082 0 004.29 2.306c1.9.677 3.895 1.079 5.925 1.194a.515.515 0 01.49.454l.001.08-.14 1.462c-.135 1.334-.28 2.64-.428 3.828l-.148 1.146-.167 1.188-.164 1.06-.109.643-.114.626c-.284 1.495-.564 2.466-.847 2.945-3.032 5.131-8.497 6.88-8.728 6.952a.53.53 0 01-.313 0l-.37-.128-.214-.082-.27-.108c-1.699-.704-5.518-2.647-7.873-6.634C2 15.139 1.1 5.249 1 4.128a.497.497 0 01.489-.536 21.261 21.261 0 005.93-1.196A25.138 25.138 0 0011.705.091a.52.52 0 01.589.001zm-.295 1.003a25.07 25.07 0 01-4.203 2.222 21.797 21.797 0 01-5.733 1.23l.183 1.837.177 1.6c.41 3.527 1.005 7.58 1.577 8.549 2.539 4.296 7.011 6.094 7.999 6.448l.279-.105.26-.105.307-.132c1.647-.726 4.873-2.484 6.96-5.79l.193-.316.047-.087.077-.172c.208-.507.494-1.565.842-3.742l.142-.92.167-1.177.139-1.074.228-1.945.223-2.132.072-.737a21.816 21.816 0 01-5.728-1.228A25.058 25.058 0 0112 1.095zM12.735 6a.477.477 0 01.086.946l-.086.008h-.282v1.1a3.935 3.935 0 011.79.667l.196.144.78-.78-.199-.198a.48.48 0 01-.003-.653.48.48 0 01.606-.077l.068.053 1.072 1.071a.478.478 0 01-.328.805.474.474 0 01-.267-.07l-.075-.058-.203-.201-.779.779c.407.512.678 1.11.795 1.75l.036.241h1.105v-.282a.476.476 0 01.945-.085l.008.085v1.512a.477.477 0 01-.945.086l-.008-.086v-.282h-1.105a3.942 3.942 0 01-.682 1.795l-.146.196.765.768.223-.222a.477.477 0 01.698.644l-.05.055-1.068 1.07a.478.478 0 01-.729-.606l.054-.066.2-.2-.769-.77a3.934 3.934 0 01-1.745.773l-.24.035v1.1h.278a.477.477 0 01.085.944l-.085.008h-1.517a.477.477 0 01-.086-.945l.086-.008h.282v-1.104a3.925 3.925 0 01-1.774-.684l-.193-.145-.78.78.2.199a.477.477 0 01-.608.728l-.066-.055-1.07-1.069a.47.47 0 01-.14-.337.474.474 0 01.4-.472l.076-.006c.096 0 .187.028.265.08l.073.06.2.199.784-.783a3.927 3.927 0 01-.773-1.724l-.036-.238h-1.1v.284a.477.477 0 01-.946.086L6 12.759v-1.516a.476.476 0 01.382-.467l.093-.009c.24.002.433.17.472.393l.007.086v.276h1.1a3.926 3.926 0 01.668-1.77l.142-.194-.792-.792-.199.2a.478.478 0 01-.73-.604l.053-.068L8.27 7.222a.477.477 0 01.733.599l-.06.075-.2.198.791.79a3.943 3.943 0 011.727-.79l.239-.037V6.954h-.282a.477.477 0 01-.086-.946L11.217 6h1.518zm-.729 3c-.805 0-1.557.31-2.123.873A2.977 2.977 0 009 11.99c.002.8.298 1.534.835 2.092a3.002 3.002 0 004.225.096l.03-.046.071-.055c.54-.56.837-1.296.839-2.073a2.98 2.98 0 00-.874-2.121 2.978 2.978 0 00-1.92-.876l-.2-.007z" fill="#878E99" fill-rule="evenodd"/></svg>