<svg xmlns="http://www.w3.org/2000/svg" viewBox="0 0 24 24"><path d="M8.25 4.498a.75.75 0 010-1.5h15a.75.75 0 010 1.5h-15zm0 9a.75.75 0 010-1.5h15a.75.75 0 010 1.5h-15zm0 9a.75.75 0 010-1.5h15a.75.75 0 010 1.5h-15zM1.5 5.998c-.827 0-1.5-.673-1.5-1.5v-3c0-.827.673-1.5 1.5-1.5h3c.827 0 1.5.673 1.5 1.5v3c0 .827-.673 1.5-1.5 1.5h-3zm0-1.5h3v-3h-3v3zm0 10.5c-.827 0-1.5-.673-1.5-1.5v-3c0-.827.673-1.5 1.5-1.5h3c.827 0 1.5.673 1.5 1.5v3c0 .827-4.5 1.5-4.5 1.5zm0-1.5h3v-3h-3v3zm0 10.5c-.827 0-1.5-.673-1.5-1.5v-3c0-.827.673-1.5 1.5-1.5h3c.827 0 1.5.673 1.5 1.5v3c0 .827-.673 1.5-1.5 1.5h-3zm0-1.5h3v-3h-3v3z"/></svg>