<?xml version="1.0" encoding="UTF-8"?>
<svg width="24px" height="24px" viewBox="0 0 24 24" version="1.1" xmlns="http://www.w3.org/2000/svg" xmlns:xlink="http://www.w3.org/1999/xlink">
    <title>Icon/Covid/Mask</title>
    <g id="Icon/Covid/Mask" stroke="none" stroke-width="1" fill="none" fill-rule="evenodd">
        <g id="Group-10" transform="translate(0.000000, 4.000000)" fill="#878E99">
            <path d="M21.0807,0.0653 C21.6897,-0.0947 22.3397,0.0453 22.8307,0.4253 C23.3597,0.8253 24.0007,1.6753 24.0007,3.4253 C24.0007,6.0453 20.8597,11.0653 20.5407,11.5553 L20.3756561,12.0175771 C19.9330333,13.2269049 19.4797,14.2264111 19.2397,14.4753 C17.7297,16.0253 14.1897,17.1053 11.9797,17.1053 C9.7697,17.1053 6.2507,16.0253 4.7297,14.4753 C4.4497,14.1953 3.9397,12.9953 3.4697,11.5953 L3.02284316,10.8616812 C2.08262537,9.28308259 0.0007,5.56018372 0.0007,3.4253 C0.0007,1.6753 0.6307,0.8253 1.1597,0.4253 C1.6597,0.0453 2.2997,-0.0947 2.9097,0.0653 C4.0407,0.3953 4.7507,1.7653 5.0407,2.4553 L5.1002,2.42655 L5.1002,2.42655 L5.1597,2.4053 C5.3281,2.3493 5.50914,2.2837 5.69898,2.21234 L7.619236,1.46978 C9.02682,0.9373 10.5985,0.4253 11.9897,0.4253 C13.4568429,0.4253 15.0360776,1.00300408 16.455181,1.5499137 L16.7797,1.6753 C17.5007,1.9553 18.1797,2.2253 18.7997,2.3953 L18.9019222,2.43233704 C18.9174778,2.43752222 18.9330333,2.44196667 18.9497,2.4453 C19.2507,1.7553 19.9607,0.3853 21.0807,0.0653 Z M12.0007,1.1753 C10.6045,1.1753 8.94616222,1.75365556 7.52041852,2.30497111 L6.252396,2.80426 C5.9493,2.9209 5.6637,3.0253 5.3997,3.1153 C4.2697,3.4953 3.1397,5.3953 3.1397,6.9553 C3.1397,8.7053 4.8997,13.5653 5.2697,13.9553 C6.5097,15.2153 9.7197,16.3653 12.0007,16.3653 C14.2507,16.3653 17.5097,15.1953 18.7107,13.9653 C19.0697,13.5853 20.8397,8.8853 20.8807,7.1753 C20.9207,5.7553 19.9897,3.9453 19.0007,3.3153 L18.9497,3.2853 C18.8397,3.2153 18.7297,3.1653 18.5997,3.1253 C17.9497,2.9353 17.2597,2.6553 16.5097,2.3753 L15.8095789,2.10386623 C14.5206763,1.61204556 13.2098538,1.1753 12.0007,1.1753 Z M16.058,9.9399 C16.261,9.9029 16.457,10.0379 16.495,10.2419 C16.527375,10.4204 16.4280625,10.592775 16.2660645,10.6578668 L16.193,10.6789 C16.075,10.6999 13.313,11.1999 12,11.1999 L11.6862249,11.1921148 C10.2931852,11.1288877 7.91633333,10.7014185 7.808,10.6829 C7.604,10.6459 7.468,10.4499 7.505,10.2459 C7.543,10.0419 7.739,9.9069 7.943,9.9439 L8.89005888,10.1045981 C9.82211111,10.2540975 11.2161111,10.4539 12,10.4539 C12.83,10.4539 14.3444444,10.2272333 15.2701481,10.0761222 L16.058,9.9439 L16.058,9.9399 Z M16.058,7.5542 C16.261,7.5172 16.457,7.6522 16.495,7.8562 C16.532,8.0602 16.397,8.2552 16.193,8.2932 L15.3452593,8.43716296 C14.3946667,8.59153333 12.8753333,8.8142 12,8.8142 C10.688,8.8142 7.925,8.3172 7.808,8.2962 C7.604,8.2592 7.468,8.0642 7.505,7.8602 C7.53825,7.6817 7.69246875,7.5552625 7.86716797,7.55189922 L7.943,7.5582 C7.971,7.5632 10.755,8.0682 12,8.0682 C12.6455556,8.0682 13.7051578,7.93108066 14.5797633,7.79903981 L16.058,7.5582 L16.058,7.5542 Z M2.7107,0.7853 C2.3307,0.6953 1.9207,0.7753 1.6097,1.0253 C1.0497,1.4453 0.7507,2.3053 0.7507,3.4253 C0.7507,4.7753 1.7297,6.9353 2.6397,8.6353 C2.5007,8.0853 2.4207,7.5253 2.3997,6.9553 C2.3997,5.4053 3.2797,3.6753 4.3897,2.8253 C4.1197,2.1653 3.5007,1.0153 2.7107,0.7853 Z M22.3807,1.0253 C22.0697,0.7753 21.6707,0.6953 21.2907,0.7853 C20.4897,1.0153 19.8697,2.1653 19.6097,2.8253 C20.7907,3.7353 21.6597,5.7253 21.6307,7.1853 C21.6097,7.6253 21.5407,8.0653 21.4397,8.4853 L21.7335752,7.9150668 C22.5150951,6.36258395 23.2507,4.58974444 23.2507,3.4253 C23.2507,2.2953 22.9397,1.4453 22.3807,1.0253 Z M16.058,5.168 C16.261,5.131 16.457,5.266 16.495,5.47 C16.527375,5.6485 16.4280625,5.820875 16.2660645,5.8859668 L16.193,5.907 C16.075,5.928 13.313,6.428 12,6.428 C10.688,6.428 7.925,5.931 7.808,5.911 C7.604,5.874 7.468,5.678 7.505,5.474 C7.543,5.27 7.739,5.135 7.943,5.172 L8.89005888,5.33269806 C9.82211111,5.48219753 11.2161111,5.682 12,5.682 L12.30027,5.67401951 C12.9982114,5.64033562 13.9793736,5.5059369 14.7641289,5.3846749 L16.058,5.172 L16.058,5.168 Z" id="Shape"></path>
        </g>
    </g>
</svg>