<svg width="24" height="24" xmlns="http://www.w3.org/2000/svg"><path d="M21.08 4.065a2.029 2.029 0 011.75.36c.53.4 1.17 1.25 1.17 3 0 2.62-3.14 7.64-3.46 8.13l-.164.463c-.443 1.209-.896 2.208-1.136 2.457-1.51 1.55-5.05 2.63-7.26 2.63s-5.73-1.08-7.25-2.63c-.28-.28-.79-1.48-1.26-2.88l-.447-.733C2.083 13.283 0 9.56 0 7.425c0-1.75.63-2.6 1.159-3 .5-.38 1.14-.52 1.75-.36 1.13.33 1.84 1.7 2.13 2.39l.06-.028.06-.022c.168-.056.35-.121.539-.193l1.92-.742c1.408-.533 2.98-1.045 4.37-1.045 1.468 0 3.047.578 4.466 1.125l.325.125c.72.28 1.4.55 2.02.72l.102.037c.015.006.031.01.048.013.3-.69 1.01-2.06 2.13-2.38zM12 5.175c-1.396 0-3.054.579-4.48 1.13l-1.268.5c-.303.116-.588.22-.852.31-1.13.38-2.26 2.28-2.26 3.84 0 1.75 1.76 6.61 2.13 7 1.24 1.26 4.45 2.41 6.73 2.41 2.25 0 5.51-1.17 6.71-2.4.36-.38 2.13-5.08 2.17-6.79.04-1.42-.89-3.23-1.88-3.86l-.05-.03c-.11-.07-.22-.12-.35-.16-.65-.19-1.34-.47-2.09-.75l-.7-.271c-1.29-.492-2.6-.929-3.81-.929zm4.058 8.765a.376.376 0 01.208.718l-.073.02c-.118.022-2.88.522-4.193.522l-.314-.008c-1.393-.063-3.77-.49-3.878-.51a.376.376 0 11.135-.738l.947.16c.932.15 2.326.35 3.11.35.83 0 2.344-.227 3.27-.378l.788-.132v-.004zm0-2.386a.376.376 0 01.135.739l-.848.144c-.95.155-2.47.377-3.345.377-1.312 0-4.075-.497-4.192-.518a.375.375 0 01.06-.744l.075.006c.028.005 2.812.51 4.057.51.646 0 1.705-.137 2.58-.269l1.478-.24v-.005zM2.711 4.785c-.38-.09-.79-.01-1.101.24-.56.42-.86 1.28-.86 2.4 0 1.35.98 3.51 1.89 5.21a8.046 8.046 0 01-.24-1.68c0-1.55.88-3.28 1.99-4.13-.27-.66-.89-1.81-1.68-2.04zm19.67.24c-.311-.25-.71-.33-1.09-.24-.801.23-1.421 1.38-1.681 2.04 1.18.91 2.05 2.9 2.02 4.36-.02.44-.09.88-.19 1.3l.294-.57c.781-1.552 1.517-3.325 1.517-4.49 0-1.13-.311-1.98-.87-2.4zm-6.323 4.143a.376.376 0 01.208.718l-.073.021c-.118.021-2.88.521-4.193.521-1.312 0-4.075-.497-4.192-.517a.376.376 0 11.135-.739l.947.16c.932.15 2.326.35 3.11.35l.3-.008c.698-.034 1.68-.168 2.464-.29l1.294-.212v-.004z" fill="#878E99" fill-rule="evenodd"/></svg>