<?xml version="1.0" encoding="utf-8"?>
<!-- Generator: Adobe Illustrator 22.1.0, SVG Export Plug-In . SVG Version: 6.00 Build 0)  -->
<svg version="1.1" id="Layer_1" xmlns="http://www.w3.org/2000/svg" xmlns:xlink="http://www.w3.org/1999/xlink" x="0px" y="0px"
	 viewBox="0 0 24 24" style="enable-background:new 0 0 24 24;" xml:space="preserve">
<title>office-chair</title>
<g>
	<path d="M18.537,24.001c-0.321,0-0.606-0.204-0.709-0.508c-0.77-2.25-2.739-3.775-5.077-3.971v3.729c0,0.414-0.336,0.75-0.75,0.75
		s-0.75-0.336-0.75-0.75v-3.729c-2.339,0.193-4.307,1.719-5.077,3.972C6.069,23.797,5.784,24,5.463,24
		c-0.083,0-0.165-0.014-0.244-0.041c-0.188-0.064-0.341-0.199-0.43-0.379s-0.101-0.383-0.036-0.573
		c0.979-2.864,3.505-4.789,6.497-4.989V16.5H6c-2.068,0-3.75-1.682-3.75-3.75V10.5H1.5c-0.414,0-0.75-0.336-0.75-0.75S1.086,9,1.5,9
		h3c0.414,0,0.75,0.336,0.75,0.75S4.914,10.5,4.5,10.5H3.75v2.25c0,1.014,0.674,1.873,1.597,2.153
		c-0.064-0.21-0.097-0.429-0.097-0.653c0-0.96,0.615-1.808,1.5-2.121V5.25C6.75,2.355,9.105,0,12,0c2.895,0,5.25,2.355,5.25,5.25
		v6.879c0.885,0.314,1.5,1.162,1.5,2.121c0,0.224-0.033,0.443-0.097,0.653c0.924-0.281,1.597-1.14,1.597-2.153V10.5H19.5
		c-0.414,0-0.75-0.336-0.75-0.75S19.086,9,19.5,9h3c0.414,0,0.75,0.336,0.75,0.75s-0.336,0.75-0.75,0.75h-0.75v2.25
		c0,2.068-1.682,3.75-3.75,3.75h-5.25v1.518c2.99,0.197,5.516,2.123,6.497,4.99c0.065,0.189,0.052,0.393-0.036,0.573
		c-0.088,0.18-0.241,0.315-0.431,0.38C18.703,23.987,18.62,24.001,18.537,24.001z M7.5,13.5c-0.414,0-0.75,0.336-0.75,0.75
		S7.086,15,7.5,15h9c0.414,0,0.75-0.336,0.75-0.75s-0.336-0.75-0.75-0.75H7.5z M15.75,12V5.25c0-2.068-1.682-3.75-3.75-3.75
		c-2.068,0-3.75,1.682-3.75,3.75V12H15.75z"/>
</g>
</svg>
