<svg xmlns="http://www.w3.org/2000/svg" viewBox="0 0 24 24"><path d="M17.25 24c-3.722 0-6.75-3.028-6.75-6.75s3.028-6.75 6.75-6.75S24 13.528 24 17.25 20.972 24 17.25 24zm0-12C14.355 12 12 14.355 12 17.25s2.355 5.25 5.25 5.25 5.25-2.355 5.25-5.25S20.145 12 17.25 12z"/><path d="M17.25 18.75a.75.75 0 01-.75-.75v-3.75a.75.75 0 011.5 0v3h1.286a.75.75 0 010 1.5H17.25zm-15.369-1.5A1.885 1.885 0 010 15.388V1.862A1.879 1.879 0 011.871 0h16.498c1.03 0 1.872.835 1.881 1.861V6a.75.75 0 01-1.5 0v-.75H1.5v10.131a.378.378 0 00.379.369H8.25a.75.75 0 010 1.5H1.881zM18.75 3.75V1.868a.377.377 0 00-.378-.368h-16.5a.373.373 0 00-.372.368V3.75h17.25z"/><path d="M11.036 11.25a.751.751 0 01-.416-1.374l2.25-1.5a.75.75 0 01.833 1.248l-2.25 1.5a.756.756 0 01-.417.126zm12 0a.753.753 0 01-.416-.126l-2.25-1.5a.746.746 0 01-.208-1.04.749.749 0 011.04-.208l2.25 1.5a.746.746 0 01.208 1.04.749.749 0 01-.624.334z"/></svg>