<?xml version="1.0" encoding="utf-8"?>
<!-- Generator: Adobe Illustrator 22.1.0, SVG Export Plug-In . SVG Version: 6.00 Build 0)  -->
<svg version="1.1" id="Layer_1" xmlns="http://www.w3.org/2000/svg" xmlns:xlink="http://www.w3.org/1999/xlink" x="0px" y="0px"
	 viewBox="0 0 24 24" style="enable-background:new 0 0 24 24;" xml:space="preserve">
<title>optimization-clock</title>
<g>
	<path d="M17.25,24c-3.722,0-6.75-3.028-6.75-6.75s3.028-6.75,6.75-6.75S24,13.528,24,17.25S20.972,24,17.25,24z M17.25,12
		C14.355,12,12,14.355,12,17.25s2.355,5.25,5.25,5.25s5.25-2.355,5.25-5.25S20.145,12,17.25,12z"/>
	<path d="M17.25,18.75c-0.414,0-0.75-0.336-0.75-0.75v-3.75c0-0.414,0.336-0.75,0.75-0.75S18,13.836,18,14.25v3h1.286
		c0.414,0,0.75,0.336,0.75,0.75s-0.336,0.75-0.75,0.75H17.25z"/>
	<path d="M1.881,17.25c-1.029,0-1.872-0.835-1.881-1.862V1.862C0.008,0.834,0.848,0,1.871,0h16.498c1.03,0,1.872,0.835,1.881,1.861
		V6c0,0.414-0.336,0.75-0.75,0.75S18.75,6.414,18.75,6V5.25H1.5v10.131c0.002,0.202,0.172,0.369,0.379,0.369H8.25
		C8.664,15.75,9,16.086,9,16.5s-0.336,0.75-0.75,0.75H1.881z M18.75,3.75V1.868C18.748,1.667,18.579,1.5,18.372,1.5h-16.5
		C1.669,1.5,1.502,1.665,1.5,1.868V3.75H18.75z"/>
	<path d="M11.036,11.25c-0.252,0-0.485-0.125-0.624-0.334c-0.229-0.344-0.136-0.811,0.208-1.04l2.25-1.5
		c0.124-0.082,0.267-0.126,0.416-0.126c0.251,0,0.485,0.125,0.625,0.334c0.111,0.167,0.151,0.367,0.112,0.563
		c-0.039,0.197-0.153,0.366-0.32,0.477l-2.25,1.5C11.328,11.206,11.185,11.25,11.036,11.25z"/>
	<path d="M23.036,11.25c-0.148,0-0.292-0.044-0.416-0.126l-2.25-1.5c-0.167-0.111-0.28-0.28-0.32-0.477
		c-0.039-0.196,0-0.396,0.112-0.563c0.139-0.209,0.373-0.334,0.624-0.334c0.148,0,0.292,0.043,0.416,0.126l2.25,1.5
		c0.167,0.111,0.28,0.28,0.32,0.477c0.039,0.196,0,0.396-0.112,0.563C23.521,11.125,23.287,11.25,23.036,11.25z"/>
</g>
</svg>
