<?xml version="1.0" encoding="utf-8"?>
<!-- Generator: Adobe Illustrator 22.1.0, SVG Export Plug-In . SVG Version: 6.00 Build 0)  -->
<svg version="1.1" id="Layer_1" xmlns="http://www.w3.org/2000/svg" xmlns:xlink="http://www.w3.org/1999/xlink" x="0px" y="0px"
	 viewBox="0 0 24 24" style="enable-background:new 0 0 24 24;" xml:space="preserve">
<title>presentation-projector</title>
<g>
	<path d="M20.25,20.25c-0.414,0-0.75-0.336-0.75-0.75v-2.25h-15v2.25c0,0.414-0.336,0.75-0.75,0.75S3,19.914,3,19.5v-2.25H2.25
		C1.009,17.25,0,16.241,0,15v-4.5c0-2.068,1.682-3.75,3.75-3.75h7.258c0.869-1.831,2.704-3,4.742-3c2.041,0,3.878,1.173,4.746,3.008
		C22.45,6.885,24,8.515,24,10.5V15c0,1.241-1.009,2.25-2.25,2.25H21v2.25C21,19.914,20.664,20.25,20.25,20.25z M3.75,8.25
		c-1.241,0-2.25,1.009-2.25,2.25V15c0,0.414,0.336,0.75,0.75,0.75h19.5c0.414,0,0.75-0.336,0.75-0.75v-4.5
		c0-0.976-0.646-1.832-1.541-2.133C20.986,8.58,21,8.792,21,9c0,2.895-2.355,5.25-5.25,5.25S10.5,11.895,10.5,9
		c0-0.246,0.019-0.497,0.057-0.75H3.75z M15.75,5.25C13.682,5.25,12,6.932,12,9s1.682,3.75,3.75,3.75S19.5,11.068,19.5,9
		S17.818,5.25,15.75,5.25z"/>
	<path d="M3.75,13.5C3.336,13.5,3,13.164,3,12.75v-1.5c0-0.414,0.336-0.75,0.75-0.75s0.75,0.336,0.75,0.75v1.5
		C4.5,13.164,4.164,13.5,3.75,13.5z"/>
	<path d="M6.75,13.5C6.336,13.5,6,13.164,6,12.75v-1.5c0-0.414,0.336-0.75,0.75-0.75s0.75,0.336,0.75,0.75v1.5
		C7.5,13.164,7.164,13.5,6.75,13.5z"/>
	<path d="M15.75,10.125c-0.62,0-1.125-0.505-1.125-1.125c-0.001-0.618,0.501-1.123,1.121-1.125c0.625,0,1.129,0.505,1.129,1.125
		S16.37,10.125,15.75,10.125z"/>
</g>
</svg>
