<svg xmlns="http://www.w3.org/2000/svg" viewBox="0 0 24 24"><path d="M20.25 20.25a.75.75 0 01-.75-.75v-2.25h-15v2.25a.75.75 0 01-1.5 0v-2.25h-.75A2.252 2.252 0 010 15v-4.5a3.754 3.754 0 013.75-3.75h7.258a5.239 5.239 0 014.742-3 5.24 5.24 0 014.746 3.008A3.755 3.755 0 0124 10.5V15a2.252 2.252 0 01-2.25 2.25H21v2.25a.75.75 0 01-.75.75zm-16.5-12A2.252 2.252 0 001.5 10.5V15c0 .414.336.75.75.75h19.5a.75.75 0 00.75-.75v-4.5a2.27 2.27 0 00-1.541-2.133c.027.213.041.425.041.633 0 2.895-2.355 5.25-5.25 5.25S10.5 11.895 10.5 9c0-.246.019-.497.057-.75H3.75zm12-3C13.682 5.25 12 6.932 12 9s1.682 3.75 3.75 3.75S19.5 11.068 19.5 9s-1.682-3.75-3.75-3.75z"/><path d="M3.75 13.5a.75.75 0 01-.75-.75v-1.5a.75.75 0 011.5 0v1.5a.75.75 0 01-.75.75zm3 0a.75.75 0 01-.75-.75v-1.5a.75.75 0 011.5 0v1.5a.75.75 0 01-.75.75zm9-3.375a1.125 1.125 0 110-2.25 1.125 1.125 0 010 2.25z"/></svg>