<?xml version="1.0" encoding="utf-8"?>
<!-- Generator: Adobe Illustrator 22.1.0, SVG Export Plug-In . SVG Version: 6.00 Build 0)  -->
<svg version="1.1" id="Regular" xmlns="http://www.w3.org/2000/svg" xmlns:xlink="http://www.w3.org/1999/xlink" x="0px" y="0px"
	 viewBox="0 0 24 24" style="enable-background:new 0 0 24 24;" xml:space="preserve">
<title>real-estate-location-building-pin</title>
<g>
	<path d="M8.25,12.75c-2.481,0-4.5-2.019-4.5-4.5s2.019-4.5,4.5-4.5s4.5,2.019,4.5,4.5S10.731,12.75,8.25,12.75z M8.25,5.25
		c-1.654,0-3,1.346-3,3s1.346,3,3,3s3-1.346,3-3S9.904,5.25,8.25,5.25z"/>
	<path d="M6.878,22.5c-0.26,0-0.498-0.132-0.636-0.352C5.603,21.124,0,12.043,0,8.25c-0.001-2.203,0.855-4.275,2.413-5.835
		c1.557-1.559,3.628-2.418,5.832-2.42c3.628,0,6.792,2.323,7.877,5.78c0.124,0.395-0.097,0.816-0.491,0.94
		c-0.073,0.023-0.149,0.034-0.225,0.034c-0.329,0-0.617-0.211-0.715-0.525c-0.888-2.829-3.476-4.729-6.44-4.729
		C6.443,1.496,4.748,2.2,3.474,3.475C2.2,4.751,1.499,6.447,1.5,8.249c0,2.387,3.118,8.465,6.014,13.103
		c0.219,0.351,0.112,0.814-0.239,1.033C7.156,22.461,7.019,22.5,6.878,22.5z"/>
	<path d="M9.75,24C9.336,24,9,23.663,9,23.25s0.336-0.75,0.75-0.75h0.75v-7c0-0.689,0.561-1.25,1.25-1.25h2.5v-4.5
		c0-0.827,0.673-1.5,1.5-1.5h6.75c0.827,0,1.5,0.673,1.5,1.5v13.5c0,0.414-0.336,0.75-0.75,0.75H9.75z M22.5,22.5v-6.75H21
		c-0.414,0-0.75-0.336-0.75-0.75s0.336-0.75,0.75-0.75h1.5v-1.5H21c-0.414,0-0.75-0.336-0.75-0.75s0.336-0.75,0.75-0.75h1.5v-1.5
		h-6.75l0,4.5h1.75c0.689,0,1.25,0.561,1.25,1.25v7H22.5z M17.25,22.5v-3.75H15c-0.414,0-0.75-0.336-0.75-0.75s0.336-0.75,0.75-0.75
		h2.25v-1.5H12v6.75H17.25z"/>
</g>
</svg>
