<svg xmlns="http://www.w3.org/2000/svg" viewBox="0 0 24 24"><path d="M8.25 12.75c-2.481 0-4.5-2.019-4.5-4.5s2.019-4.5 4.5-4.5 4.5 2.019 4.5 4.5-2.019 4.5-4.5 4.5zm0-7.5c-1.654 0-3 1.346-3 3s1.346 3 3 3 3-1.346 3-3-1.346-3-3-3z"/><path d="M6.878 22.5a.747.747 0 01-.636-.352C5.603 21.124 0 12.043 0 8.25a8.197 8.197 0 012.413-5.835 8.198 8.198 0 015.832-2.42 8.219 8.219 0 017.877 5.78.75.75 0 01-1.431.449 6.722 6.722 0 00-6.44-4.729 6.712 6.712 0 00-4.777 1.98A6.708 6.708 0 001.5 8.249c0 2.387 3.118 8.465 6.014 13.103a.75.75 0 01-.636 1.148z"/><path d="M9.75 24a.75.75 0 010-1.5h.75v-7c0-.689.561-1.25 1.25-1.25h2.5v-4.5c0-.827.673-1.5 1.5-1.5h6.75c.827 0 1.5.673 1.5 1.5v13.5a.75.75 0 01-.75.75H9.75zm12.75-1.5v-6.75H21a.75.75 0 010-1.5h1.5v-1.5H21a.75.75 0 010-1.5h1.5v-1.5h-6.75v4.5h1.75c.689 0 1.25.561 1.25 1.25v7h3.75zm-5.25 0v-3.75H15a.75.75 0 010-1.5h2.25v-1.5H12v6.75h5.25z"/></svg>