<?xml version="1.0" encoding="utf-8"?>
<!-- Generator: Adobe Illustrator 22.1.0, SVG Export Plug-In . SVG Version: 6.00 Build 0)  -->
<svg version="1.1" id="Layer_1" xmlns="http://www.w3.org/2000/svg" xmlns:xlink="http://www.w3.org/1999/xlink" x="0px" y="0px"
	 viewBox="0 0 24 24" style="enable-background:new 0 0 24 24;" xml:space="preserve">
<title>safety-helmet</title>
<g>
	<path d="M6,22.494c-1.654,0-3-1.346-3-3v-3c-1.654,0-3-1.346-3-3c0-0.763,0.284-1.482,0.802-2.039
		c0.364-3.332,2.64-6.163,5.837-7.252l2.983-2.237c0.388-0.296,0.874-0.46,1.366-0.46c0.026,0,0.052,0,0.077,0.001
		c5.467,0.098,9.926,4.633,9.934,10.11v3.376h2.25c0.414,0,0.75,0.336,0.75,0.75s-0.336,0.75-0.75,0.75h-3.375l-1.125,1.5
		c-0.704,0.939-1.826,1.5-3,1.5H9C9,21.148,7.654,22.494,6,22.494z M4.5,19.494c0,0.827,0.673,1.5,1.5,1.5s1.5-0.673,1.5-1.5v-0.75
		c0-0.414,0.336-0.75,0.75-0.75h7.5c0.704,0,1.377-0.336,1.8-0.9l0.45-0.6H4.5V19.494z M3,11.994c-0.827,0-1.5,0.673-1.5,1.5
		s0.673,1.5,1.5,1.5h16.5v-3.375c-0.007-4.665-3.808-8.528-8.473-8.612l-0.04-0.001c-0.167,0-0.326,0.054-0.46,0.156L9.74,3.752
		c2.651,0.118,5.119,1.456,6.661,3.627c0.116,0.163,0.161,0.362,0.128,0.559c-0.033,0.198-0.142,0.37-0.305,0.486
		c-0.128,0.091-0.278,0.138-0.434,0.138c-0.243,0-0.472-0.118-0.612-0.316c-1.333-1.877-3.502-3-5.804-3.004
		c-3.244,0.01-6.046,2.201-6.878,5.292C2.661,10.508,2.83,10.494,3,10.494h9c0.414,0,0.75,0.336,0.75,0.75s-0.336,0.75-0.75,0.75H3z
		"/>
</g>
</svg>
