<?xml version="1.0" encoding="utf-8"?>
<!-- Generator: Adobe Illustrator 22.1.0, SVG Export Plug-In . SVG Version: 6.00 Build 0)  -->
<svg version="1.1" id="Layer_1" xmlns="http://www.w3.org/2000/svg" xmlns:xlink="http://www.w3.org/1999/xlink" x="0px" y="0px"
	 viewBox="0 0 24 24" style="enable-background:new 0 0 24 24;" xml:space="preserve">
<title>safety-fire-shield</title>
<g>
	<path d="M12.005,18.001c-1.405,0-2.723-0.547-3.714-1.537c-0.99-0.991-1.535-2.308-1.534-3.709C6.639,10.968,7.6,9.23,9.207,8.353
		c0.11-0.06,0.234-0.092,0.359-0.092c0.116,0,0.232,0.027,0.335,0.079c0.22,0.11,0.372,0.321,0.407,0.563
		c0.056,0.385,0.331,0.698,0.689,0.814c0.625-1.446,0.388-3.122-0.634-4.341c-0.211-0.251-0.234-0.606-0.059-0.883
		c0.138-0.218,0.375-0.349,0.633-0.349c0.064,0,0.129,0.008,0.191,0.025c3.873,1.011,6.443,4.637,6.114,8.626
		c-0.053,2.881-2.349,5.167-5.232,5.206C12.008,18.001,12.007,18.001,12.005,18.001z M9.237,10.176
		c-0.673,0.653-1.043,1.587-0.982,2.53c0.001,1.041,0.391,1.99,1.097,2.697c0.707,0.708,1.647,1.097,2.647,1.098
		c2.069-0.028,3.716-1.677,3.744-3.753c0.001-0.024,0.001-0.043,0.004-0.062c0.218-2.552-1.026-4.968-3.158-6.281
		c0.446,1.484,0.277,3.125-0.5,4.479c-0.124,0.216-0.345,0.356-0.593,0.375c-0.064,0.005-0.126,0.007-0.189,0.007
		C10.468,11.266,9.699,10.85,9.237,10.176z"/>
	<path d="M12,24.001c-0.461,0-0.914-0.084-1.346-0.25l-1.041-0.4C4.76,21.484,1.5,16.737,1.5,11.538V3.925
		C1.495,3.049,2.008,2.245,2.806,1.88C5.667,0.631,8.693,0,11.807,0l0.199,0.001L12.193,0c3.113,0,6.137,0.631,8.988,1.874
		c0.809,0.37,1.324,1.176,1.318,2.055v7.609c0,5.199-3.26,9.946-8.113,11.813l-1.041,0.4C12.914,23.917,12.461,24.001,12,24.001z
		 M11.805,1.5c-2.904,0-5.726,0.589-8.387,1.75C3.164,3.365,2.998,3.629,3,3.919v7.619c0,4.583,2.874,8.768,7.151,10.413l1.041,0.4
		c0.26,0.1,0.531,0.151,0.808,0.151s0.548-0.051,0.808-0.15l1.041-0.4C18.126,20.305,21,16.121,21,11.538V3.924
		c0.002-0.293-0.167-0.559-0.43-0.68C17.919,2.087,15.106,1.5,12.215,1.5l-0.208,0.001L11.805,1.5z"/>
</g>
</svg>
