<svg xmlns="http://www.w3.org/2000/svg" viewBox="0 0 24 24"><path d="M6 22.494c-1.654 0-3-1.346-3-3v-3c-1.654 0-3-1.346-3-3 0-.763.284-1.482.802-2.039a8.672 8.672 0 015.837-7.252l2.983-2.237a2.266 2.266 0 011.443-.459c5.467.098 9.926 4.633 9.934 10.11v3.376h2.25a.75.75 0 010 1.5h-3.375l-1.125 1.5a3.768 3.768 0 01-3 1.5H9a3.004 3.004 0 01-3 3.001zm-1.5-3c0 .827.673 1.5 1.5 1.5s1.5-.673 1.5-1.5v-.75a.75.75 0 01.75-.75h7.5a2.26 2.26 0 001.8-.9l.45-.6H4.5v3zm-1.5-7.5c-.827 0-1.5.673-1.5 1.5s.673 1.5 1.5 1.5h16.5v-3.375c-.007-4.665-3.808-8.528-8.473-8.612l-.04-.001a.754.754 0 00-.46.156l-.787.59a8.655 8.655 0 016.661 3.627.746.746 0 01-.177 1.045.75.75 0 01-1.046-.178 7.147 7.147 0 00-5.804-3.004 7.15 7.15 0 00-6.878 5.292c.165-.026.334-.04.504-.04h9a.75.75 0 010 1.5H3z"/></svg>