<?xml version="1.0" encoding="utf-8"?>
<!-- Generator: Adobe Illustrator 22.1.0, SVG Export Plug-In . SVG Version: 6.00 Build 0)  -->
<svg version="1.1" id="Layer_1" xmlns="http://www.w3.org/2000/svg" xmlns:xlink="http://www.w3.org/1999/xlink" x="0px" y="0px"
	 viewBox="0 0 24 24" style="enable-background:new 0 0 24 24;" xml:space="preserve">
<title>team-approve-disapprove</title>
<g>
	<path d="M4.973,20.251c-1.861,0-3.375-1.514-3.375-3.375s1.514-3.375,3.375-3.375s3.375,1.514,3.375,3.375
		S6.834,20.251,4.973,20.251z M4.973,15.001c-1.034,0-1.875,0.841-1.875,1.875s0.841,1.875,1.875,1.875s1.875-0.841,1.875-1.875
		S6.007,15.001,4.973,15.001z"/>
	<path d="M9.2,24.001c-0.318,0-0.602-0.202-0.708-0.503c-0.328-0.94-1.001-1.695-1.897-2.128c-0.512-0.247-1.056-0.372-1.616-0.372
		c-0.417,0-0.83,0.071-1.229,0.21c-1.079,0.376-1.914,1.211-2.29,2.29c-0.105,0.301-0.39,0.503-0.708,0.503
		c-0.085,0-0.168-0.014-0.248-0.042c-0.188-0.065-0.34-0.201-0.427-0.382c-0.087-0.18-0.099-0.384-0.033-0.573
		c0.528-1.514,1.699-2.685,3.213-3.212c0.559-0.195,1.139-0.294,1.724-0.294c0.787,0,1.55,0.176,2.268,0.522
		c1.256,0.607,2.202,1.667,2.661,2.984c0.066,0.189,0.054,0.393-0.033,0.573c-0.087,0.181-0.239,0.316-0.429,0.382
		C9.369,23.987,9.285,24.001,9.2,24.001z"/>
	<path d="M9,12.751c-0.161,0-0.321-0.053-0.45-0.15l-2.8-2.1H2.249c-1.241,0-2.25-1.009-2.25-2.25v-6c0-1.241,1.009-2.25,2.25-2.25
		H10.5c0.414,0,0.75,0.336,0.75,0.75s-0.336,0.75-0.75,0.75H2.249c-0.414,0-0.75,0.336-0.75,0.75v6c0,0.414,0.336,0.75,0.75,0.75H6
		c0.161,0,0.321,0.053,0.45,0.15l1.8,1.35v-0.75c0-0.414,0.336-0.75,0.75-0.75s0.75,0.336,0.75,0.75v2.25
		c0,0.286-0.159,0.543-0.415,0.671C9.232,12.723,9.116,12.751,9,12.751z"/>
	<path d="M5.249,7.501c-0.201,0-0.389-0.078-0.531-0.22l-1.5-1.5c-0.142-0.141-0.22-0.33-0.22-0.53s0.078-0.389,0.22-0.53
		c0.141-0.142,0.33-0.22,0.53-0.22s0.389,0.078,0.53,0.22l1.025,1.025l3.226-2.581C8.663,3.059,8.83,3.001,8.999,3.001
		c0.229,0,0.443,0.103,0.586,0.282c0.258,0.323,0.206,0.796-0.117,1.054l-3.75,3C5.585,7.442,5.419,7.501,5.249,7.501z"/>
	<path d="M19.025,20.251c-1.861,0-3.375-1.514-3.375-3.375s1.514-3.375,3.375-3.375s3.375,1.514,3.375,3.375
		S20.886,20.251,19.025,20.251z M19.025,15.001c-1.034,0-1.875,0.841-1.875,1.875s0.841,1.875,1.875,1.875S20.9,17.91,20.9,16.876
		S20.059,15.001,19.025,15.001z"/>
	<path d="M23.248,24.001c-0.318,0-0.603-0.203-0.707-0.504c-0.376-1.079-1.211-1.914-2.29-2.29
		c-0.399-0.139-0.812-0.209-1.229-0.209c-0.56,0-1.104,0.125-1.616,0.372c-0.896,0.433-1.57,1.188-1.897,2.127
		c-0.105,0.301-0.389,0.503-0.708,0.503c-0.085,0-0.168-0.014-0.248-0.042c-0.188-0.065-0.341-0.201-0.428-0.382
		c-0.087-0.18-0.099-0.384-0.032-0.573c0.459-1.317,1.405-2.377,2.661-2.984c0.718-0.347,1.481-0.522,2.268-0.522
		c0.585,0,1.165,0.099,1.724,0.294c1.514,0.528,2.685,1.698,3.212,3.212c0.066,0.189,0.054,0.393-0.032,0.573
		c-0.087,0.18-0.24,0.316-0.429,0.382C23.417,23.987,23.333,24.001,23.248,24.001z"/>
	<path d="M14.25,15.001c-0.116,0-0.233-0.028-0.336-0.079c-0.255-0.128-0.414-0.385-0.414-0.671v-1.5c-1.241,0-2.25-1.009-2.25-2.25
		v-6c0-1.241,1.009-2.25,2.25-2.25h8.25c1.241,0,2.25,1.009,2.25,2.25v6c0,1.241-1.009,2.25-2.25,2.25H17.5l-2.8,2.1
		C14.571,14.948,14.411,15.001,14.25,15.001z M13.5,3.751c-0.414,0-0.75,0.336-0.75,0.75v6c0,0.414,0.337,0.75,0.75,0.75h0.75
		c0.414,0,0.75,0.336,0.75,0.75v0.75l1.8-1.35c0.129-0.097,0.289-0.15,0.45-0.15h4.5c0.414,0,0.75-0.336,0.75-0.75v-6
		c0-0.414-0.336-0.75-0.75-0.75H13.5z"/>
	<path d="M19.499,9.751c-0.169,0-0.335-0.058-0.468-0.164l-1.407-1.125l-1.406,1.125c-0.133,0.106-0.299,0.164-0.469,0.164
		c-0.229,0-0.443-0.103-0.586-0.282c-0.258-0.323-0.206-0.796,0.117-1.054l1.143-0.914l-1.143-0.914
		c-0.323-0.258-0.375-0.731-0.117-1.054c0.143-0.179,0.356-0.281,0.585-0.281c0.169,0,0.335,0.058,0.468,0.164l1.407,1.126
		l1.406-1.125c0.133-0.106,0.3-0.164,0.469-0.164c0.229,0,0.443,0.103,0.586,0.282c0.258,0.323,0.206,0.795-0.117,1.054
		l-1.143,0.914l1.143,0.914c0.323,0.258,0.375,0.731,0.117,1.054C19.942,9.648,19.728,9.751,19.499,9.751z"/>
</g>
</svg>
