<?xml version="1.0" encoding="utf-8"?>
<!-- Generator: Adobe Illustrator 22.1.0, SVG Export Plug-In . SVG Version: 6.00 Build 0)  -->
<svg version="1.1" id="Layer_1" xmlns="http://www.w3.org/2000/svg" xmlns:xlink="http://www.w3.org/1999/xlink" x="0px" y="0px"
	 viewBox="0 0 24 24" style="enable-background:new 0 0 24 24;" xml:space="preserve">
<title>team-meeting</title>
<g>
	<path d="M4.5,21c-1.861,0-3.375-1.514-3.375-3.375S2.639,14.25,4.5,14.25s3.375,1.514,3.375,3.375S6.361,21,4.5,21z M4.5,15.75
		c-1.034,0-1.875,0.841-1.875,1.875S3.466,19.5,4.5,19.5s1.875-0.841,1.875-1.875S5.534,15.75,4.5,15.75z"/>
	<path d="M0.749,24c-0.122,0-0.244-0.031-0.353-0.088c-0.365-0.194-0.503-0.649-0.309-1.014c0.469-0.879,1.181-1.591,2.059-2.059
		c0.721-0.384,1.532-0.587,2.345-0.587c1.855,0,3.549,1.014,4.42,2.646c0.195,0.365,0.056,0.82-0.309,1.015
		C8.494,23.969,8.372,24,8.25,24l0,0c-0.278,0-0.531-0.152-0.662-0.397C6.979,22.46,5.793,21.75,4.493,21.75
		c-0.569,0-1.136,0.142-1.641,0.411c-0.615,0.328-1.113,0.826-1.441,1.441C1.281,23.848,1.027,24,0.749,24z"/>
	<path d="M23.25,24c-0.278,0-0.532-0.152-0.662-0.397c-0.44-0.824-1.175-1.429-2.069-1.701c-0.334-0.102-0.679-0.153-1.023-0.153
		c-0.567,0-1.135,0.143-1.643,0.414c-0.615,0.328-1.113,0.826-1.441,1.441C16.281,23.848,16.027,24,15.75,24
		c-0.122,0-0.244-0.031-0.353-0.088c-0.365-0.195-0.503-0.65-0.309-1.015c0.469-0.879,1.18-1.591,2.059-2.059
		c0.214-0.115,0.437-0.213,0.664-0.295c-1.007-0.586-1.686-1.677-1.686-2.919c0-1.861,1.514-3.375,3.375-3.375
		s3.375,1.514,3.375,3.375c0,1.242-0.679,2.333-1.686,2.919c1.172,0.419,2.133,1.247,2.723,2.353
		c0.094,0.177,0.114,0.38,0.056,0.572c-0.058,0.191-0.188,0.349-0.365,0.443C23.495,23.969,23.373,24,23.25,24z M19.5,15.75
		c-1.034,0-1.875,0.841-1.875,1.875S18.466,19.5,19.5,19.5s1.875-0.841,1.875-1.875S20.534,15.75,19.5,15.75z"/>
	<path d="M12,6.75c-1.861,0-3.375-1.514-3.375-3.375S10.139,0,12,0c1.861,0,3.375,1.514,3.375,3.375S13.861,6.75,12,6.75z M12,1.5
		c-1.034,0-1.875,0.841-1.875,1.875S10.966,5.25,12,5.25s1.875-0.841,1.875-1.875S13.034,1.5,12,1.5z"/>
	<path d="M15.249,9c-0.22,0-0.428-0.096-0.571-0.264c-0.669-0.785-1.646-1.236-2.682-1.236c-0.835,0-1.644,0.298-2.279,0.838
		C9.575,8.46,9.441,8.594,9.32,8.736C9.177,8.904,8.969,9,8.749,9C8.571,9,8.398,8.936,8.262,8.821
		C8.11,8.691,8.017,8.51,8.001,8.31c-0.016-0.2,0.047-0.394,0.177-0.546C8.351,7.56,8.542,7.37,8.745,7.197
		c0.907-0.773,2.061-1.198,3.247-1.198c0.135,0,0.271,0.005,0.407,0.016c1.337,0.107,2.552,0.728,3.42,1.749
		c0.13,0.153,0.193,0.346,0.177,0.546s-0.109,0.381-0.261,0.511C15.6,8.936,15.427,9,15.249,9z"/>
	<path d="M11.999,21.001c-1.101,0-2.183-0.199-3.215-0.593c-0.187-0.071-0.335-0.211-0.417-0.394
		c-0.082-0.183-0.088-0.387-0.016-0.574c0.11-0.289,0.391-0.483,0.7-0.483c0.092,0,0.182,0.017,0.268,0.05
		c0.86,0.328,1.762,0.494,2.68,0.494c0.934,0,1.851-0.172,2.724-0.511c0.087-0.034,0.178-0.051,0.271-0.051
		c0.307,0,0.588,0.192,0.699,0.479c0.15,0.386-0.042,0.821-0.428,0.971C14.219,20.795,13.119,21.001,11.999,21.001z"/>
	<path d="M3.786,13.5c-0.39,0-0.711-0.293-0.746-0.682C3.012,12.513,2.999,12.253,2.999,12C2.998,9.529,4.032,7.142,5.836,5.453
		C5.976,5.322,6.158,5.25,6.349,5.25c0.207,0,0.406,0.087,0.547,0.237c0.137,0.146,0.209,0.337,0.202,0.537
		c-0.007,0.2-0.091,0.386-0.237,0.523C5.359,7.954,4.498,9.942,4.499,12c0,0.206,0.011,0.423,0.035,0.682
		c0.038,0.411-0.266,0.777-0.678,0.815C3.83,13.499,3.808,13.5,3.786,13.5z"/>
	<path d="M20.212,13.5c-0.022,0-0.043-0.001-0.065-0.003c-0.201-0.018-0.382-0.112-0.51-0.266c-0.129-0.154-0.19-0.348-0.172-0.548
		C19.489,12.412,19.5,12.195,19.5,12c0.001-2.059-0.86-4.046-2.363-5.452c-0.302-0.283-0.317-0.759-0.035-1.06
		c0.141-0.151,0.34-0.237,0.547-0.237c0.191,0,0.373,0.072,0.512,0.202C19.967,7.142,21.001,9.528,21,12
		c0,0.242-0.013,0.501-0.041,0.816C20.924,13.206,20.603,13.5,20.212,13.5z"/>
</g>
</svg>
