<svg xmlns="http://www.w3.org/2000/svg" viewBox="0 0 24 24"><path d="M4.973 20.251c-1.861 0-3.375-1.514-3.375-3.375s1.514-3.375 3.375-3.375 3.375 1.514 3.375 3.375-1.514 3.375-3.375 3.375zm0-5.25c-1.034 0-1.875.841-1.875 1.875s.841 1.875 1.875 1.875 1.875-.841 1.875-1.875-.841-1.875-1.875-1.875z"/><path d="M9.2 24.001a.752.752 0 01-.708-.503 3.7 3.7 0 00-1.897-2.128 3.692 3.692 0 00-2.845-.162 3.703 3.703 0 00-2.29 2.29.751.751 0 01-1.416-.494 5.193 5.193 0 013.213-3.212 5.186 5.186 0 013.992.228 5.192 5.192 0 012.661 2.984.745.745 0 01-.033.573.741.741 0 01-.677.424zM9 12.751a.753.753 0 01-.45-.15l-2.8-2.1H2.249a2.252 2.252 0 01-2.25-2.25v-6a2.252 2.252 0 012.25-2.25H10.5a.75.75 0 010 1.5H2.249a.75.75 0 00-.75.75v6c0 .414.336.75.75.75H6c.161 0 .321.053.45.15l1.8 1.35v-.75a.75.75 0 011.5 0v2.25a.746.746 0 01-.75.75z"/><path d="M5.249 7.501a.745.745 0 01-.531-.22l-1.5-1.5c-.142-.141-.22-.33-.22-.53s.078-.389.22-.53c.141-.142.33-.22.53-.22s.389.078.53.22l1.025 1.025 3.226-2.581a.761.761 0 01.47-.164.75.75 0 01.469 1.336l-3.75 3a.76.76 0 01-.469.164zm13.776 12.75c-1.861 0-3.375-1.514-3.375-3.375s1.514-3.375 3.375-3.375 3.375 1.514 3.375 3.375-1.514 3.375-3.375 3.375zm0-5.25c-1.034 0-1.875.841-1.875 1.875s.841 1.875 1.875 1.875 1.875-.841 1.875-1.875-.841-1.875-1.875-1.875z"/><path d="M23.248 24.001a.75.75 0 01-.707-.504 3.703 3.703 0 00-2.29-2.29 3.692 3.692 0 00-2.845.163 3.699 3.699 0 00-1.897 2.127.75.75 0 11-1.416-.494 5.192 5.192 0 012.661-2.984 5.172 5.172 0 012.268-.522c.585 0 1.165.099 1.724.294a5.192 5.192 0 013.212 3.212.75.75 0 01-.71.998zm-8.998-9a.747.747 0 01-.75-.75v-1.5a2.252 2.252 0 01-2.25-2.25v-6a2.252 2.252 0 012.25-2.25h8.25A2.252 2.252 0 0124 4.501v6a2.252 2.252 0 01-2.25 2.25H17.5l-2.8 2.1a.753.753 0 01-.45.15zm-.75-11.25a.75.75 0 00-.75.75v6c0 .414.337.75.75.75h.75a.75.75 0 01.75.75v.75l1.8-1.35a.753.753 0 01.45-.15h4.5a.75.75 0 00.75-.75v-6a.75.75 0 00-.75-.75H13.5z"/><path d="M19.499 9.751a.753.753 0 01-.468-.164l-1.407-1.125-1.406 1.125a.754.754 0 01-1.055-.118.75.75 0 01.117-1.054l1.143-.914-1.143-.914a.75.75 0 01.468-1.335c.169 0 .335.058.468.164l1.407 1.126 1.406-1.125a.747.747 0 011.055.118.75.75 0 01-.117 1.054l-1.143.914 1.143.914a.75.75 0 01-.468 1.334z"/></svg>