<svg width="24" height="24" xmlns="http://www.w3.org/2000/svg"><path d="M12.027 0a3.18 3.18 0 013.178 3.178v9.644a6.118 6.118 0 012.85 5.15A6.01 6.01 0 0112.027 24 6.01 6.01 0 016 17.973a6.118 6.118 0 012.85-5.151V3.178A3.18 3.18 0 0112.026 0zm0 .932a2.257 2.257 0 00-2.246 2.246V4h1.534c.274 0 .438.164.438.438s-.164.494-.438.494H9.781v1.04h1.534c.274 0 .438.22.438.494s-.164.438-.438.438H9.781V8h1.534c.274 0 .438.22.438.493 0 .22-.164.439-.438.439H9.781v1.095h1.534c.274 0 .438.22.438.439 0 .274-.164.493-.438.493H9.781v2.137a.46.46 0 01-.22.383 5.137 5.137 0 00-2.63 4.494c0 2.794 2.302 5.095 5.096 5.095a5.086 5.086 0 005.096-5.095c0-1.863-.986-3.562-2.575-4.439-.164-.055-.274-.219-.274-.438V3.178c0-1.26-.986-2.246-2.247-2.246zm0 14.3a2.713 2.713 0 012.74 2.74c0 1.48-1.205 2.74-2.74 2.74a2.748 2.748 0 01-2.74-2.74 2.713 2.713 0 012.74-2.74zm0 .932c-.986 0-1.808.822-1.808 1.809 0 .986.822 1.808 1.808 1.808.987 0 1.809-.822 1.809-1.808 0-.987-.822-1.809-1.809-1.809z" fill="#878E99" fill-rule="evenodd"/></svg>