<?xml version="1.0" encoding="UTF-8"?>
<svg width="24px" height="24px" viewBox="0 0 24 24" version="1.1" xmlns="http://www.w3.org/2000/svg" xmlns:xlink="http://www.w3.org/1999/xlink">
    <title>Icon/Covid/Temp</title>
    <g id="Icon/Covid/Temp" stroke="none" stroke-width="1" fill="none" fill-rule="evenodd">
        <g id="Group" transform="translate(6.000000, 0.000000)" fill="#878E99">
            <path d="M6.02739726,0 C7.78082192,0 9.20547945,1.42465753 9.20547945,3.17808219 L9.20547945,12.8219178 C10.9589041,13.9178082 12.0547945,15.890411 12.0547945,17.9726027 C12.0547945,21.3150685 9.36986301,24 6.02739726,24 C2.68493151,24 8.8817842e-15,21.3150685 8.8817842e-15,17.9726027 C8.8817842e-15,15.890411 1.09589041,13.9178082 2.84931507,12.8219178 L2.84931507,3.17808219 C2.84931507,1.42465753 4.2739726,0 6.02739726,0 Z M6.02739726,0.931506849 C4.82191781,0.931506849 3.78082192,1.91780822 3.78082192,3.17808219 L3.78082192,4 L5.31506849,4 C5.5890411,4 5.75342466,4.16438356 5.75342466,4.43835616 C5.75342466,4.71232877 5.5890411,4.93150685 5.31506849,4.93150685 L3.78082192,4.93150685 L3.78082192,5.97260274 L5.31506849,5.97260274 C5.5890411,5.97260274 5.75342466,6.19178082 5.75342466,6.46575342 C5.75342466,6.73972603 5.5890411,6.90410959 5.31506849,6.90410959 L3.78082192,6.90410959 L3.78082192,8 L5.31506849,8 C5.5890411,8 5.75342466,8.21917808 5.75342466,8.49315068 C5.75342466,8.71232877 5.5890411,8.93150685 5.31506849,8.93150685 L3.78082192,8.93150685 L3.78082192,10.0273973 L5.31506849,10.0273973 C5.5890411,10.0273973 5.75342466,10.2465753 5.75342466,10.4657534 C5.75342466,10.739726 5.5890411,10.9589041 5.31506849,10.9589041 L3.78082192,10.9589041 L3.78082192,13.0958904 C3.78082192,13.260274 3.67123288,13.4246575 3.56164384,13.4794521 C1.91780822,14.4109589 0.931506849,16.109589 0.931506849,17.9726027 C0.931506849,20.7671233 3.23287671,23.0684932 6.02739726,23.0684932 C8.87671233,23.0684932 11.1232877,20.7671233 11.1232877,17.9726027 C11.1232877,16.109589 10.1369863,14.4109589 8.54794521,13.5342466 C8.38356164,13.4794521 8.2739726,13.3150685 8.2739726,13.0958904 L8.2739726,3.17808219 C8.2739726,1.91780822 7.28767123,0.931506849 6.02739726,0.931506849 Z M6.02739726,15.2328767 C7.56164384,15.2328767 8.76712329,16.4383562 8.76712329,17.9726027 C8.76712329,19.4520548 7.56164384,20.7123288 6.02739726,20.7123288 C4.49315068,20.7123288 3.28767123,19.4520548 3.28767123,17.9726027 C3.28767123,16.4383562 4.49315068,15.2328767 6.02739726,15.2328767 Z M6.02739726,16.1643836 C5.04109589,16.1643836 4.21917808,16.9863014 4.21917808,17.9726027 C4.21917808,18.9589041 5.04109589,19.7808219 6.02739726,19.7808219 C7.01369863,19.7808219 7.83561644,18.9589041 7.83561644,17.9726027 C7.83561644,16.9863014 7.01369863,16.1643836 6.02739726,16.1643836 Z" id="Shape"></path>
        </g>
    </g>
</svg>