<svg xmlns="http://www.w3.org/2000/svg" viewBox="0 0 24 24"><path d="M.752 3.001a.75.75 0 01-.75-.75 2.252 2.252 0 012.25-2.25.75.75 0 010 1.5c-.414 0-.75.336-.75.75s-.336.75-.75.75zm1.5 21a2.252 2.252 0 01-2.25-2.25.75.75 0 011.5 0c0 .414.336.75.75.75a.75.75 0 010 1.5zm19.5 0a.75.75 0 010-1.5.75.75 0 00.75-.75.75.75 0 011.5 0 2.252 2.252 0 01-2.25 2.25zm1.5-21c-.414 0-.75-.336-.75-.75s-.336-.75-.75-.75a.75.75 0 010-1.5 2.252 2.252 0 012.25 2.25.75.75 0 01-.75.75zm0 15.75a.75.75 0 01-.75-.75v-1.5a.75.75 0 011.5 0v1.5a.75.75 0 01-.75.75zm0-5.25a.75.75 0 01-.75-.75v-1.5a.75.75 0 011.5 0v1.5a.75.75 0 01-.75.75zm0-5.25a.75.75 0 01-.75-.75v-1.5a.75.75 0 011.5 0v1.5a.75.75 0 01-.75.75zm-22.5 10.5a.75.75 0 01-.75-.75v-1.5a.75.75 0 011.5 0v1.5a.75.75 0 01-.75.75zm0-5.25a.75.75 0 01-.75-.75v-1.5a.75.75 0 011.5 0v1.5a.75.75 0 01-.75.75zm0-5.25a.75.75 0 01-.75-.75v-1.5a.75.75 0 011.5 0v1.5a.75.75 0 01-.75.75zm5.25-6.75a.75.75 0 010-1.5h1.5a.75.75 0 010 1.5h-1.5zm5.25 0a.75.75 0 010-1.5h1.5a.75.75 0 010 1.5h-1.5zm5.25 0a.75.75 0 010-1.5h1.5a.75.75 0 010 1.5h-1.5zm-10.5 22.5a.75.75 0 010-1.5h1.5a.75.75 0 010 1.5h-1.5zm5.25 0a.75.75 0 010-1.5h1.5a.75.75 0 010 1.5h-1.5zm5.25 0a.75.75 0 010-1.5h1.5a.75.75 0 010 1.5h-1.5zm-4.5-5.25a.75.75 0 01-.75-.75V7.812l-3.22 3.22a.744.744 0 01-1.06 0c-.142-.141-.22-.33-.22-.53s.078-.389.22-.53l4.499-4.499a.74.74 0 01.245-.163l.025-.009a.737.737 0 01.521.001l.02.007c.097.04.179.095.25.166l4.499 4.499c.142.141.22.33.22.53s-.078.389-.22.53a.749.749 0 01-1.06 0l-3.22-3.22v10.189a.748.748 0 01-.749.748z"/></svg>