<?xml version="1.0" encoding="utf-8"?>
<!-- Generator: Adobe Illustrator 22.1.0, SVG Export Plug-In . SVG Version: 6.00 Build 0)  -->
<svg version="1.1" id="Layer_1" xmlns="http://www.w3.org/2000/svg" xmlns:xlink="http://www.w3.org/1999/xlink" x="0px" y="0px"
	 viewBox="0 0 24 24" style="enable-background:new 0 0 24 24;" xml:space="preserve">
<title>warehouse-cart-packages-2</title>
<g>
	<path d="M0.756,17.25c-0.414,0-0.75-0.336-0.75-0.75s0.336-0.75,0.75-0.75h15.958c0.37,0,0.69-0.275,0.744-0.639l1.864-12.445
		c0.167-1.11,1.103-1.916,2.225-1.916h1.709c0.414,0,0.75,0.336,0.75,0.75s-0.336,0.75-0.75,0.75h-1.709
		c-0.374,0-0.686,0.269-0.741,0.639l-1.864,12.446c-0.164,1.092-1.121,1.916-2.225,1.916H0.756z"/>
	<path d="M9.006,14.25c-0.264,0-0.522-0.072-0.75-0.205c-0.228,0.134-0.486,0.205-0.75,0.205h-4.5c-0.827,0-1.5-0.673-1.5-1.5v-4.5
		c0-0.827,0.673-1.5,1.5-1.5h4.5v-1.5c0-0.827,0.673-1.5,1.5-1.5h6c0.827,0,1.5,0.673,1.5,1.5v7.5c0,0.827-0.673,1.5-1.5,1.5H9.006z
		 M9.006,12.75h6v-7.5h-6V12.75z M3.006,12.75h4.5v-4.5h-4.5V12.75z"/>
	<path d="M4.131,23.25c-1.447,0-2.625-1.177-2.625-2.625S2.683,18,4.131,18s2.625,1.177,2.625,2.625S5.578,23.25,4.131,23.25z
		 M4.131,19.5c-0.62,0-1.125,0.505-1.125,1.125S3.51,21.75,4.131,21.75s1.125-0.505,1.125-1.125S4.751,19.5,4.131,19.5z"/>
	<path d="M14.631,23.25c-1.448,0-2.625-1.177-2.625-2.625S13.183,18,14.631,18s2.625,1.177,2.625,2.625S16.078,23.25,14.631,23.25z
		 M14.631,19.5c-0.62,0-1.125,0.505-1.125,1.125s0.505,1.125,1.125,1.125s1.125-0.505,1.125-1.125S15.251,19.5,14.631,19.5z"/>
</g>
</svg>
