<?xml version="1.0" encoding="utf-8"?>
<!-- Generator: Adobe Illustrator 22.1.0, SVG Export Plug-In . SVG Version: 6.00 Build 0)  -->
<svg version="1.1" id="Layer_1" xmlns="http://www.w3.org/2000/svg" xmlns:xlink="http://www.w3.org/1999/xlink" x="0px" y="0px"
	 viewBox="0 0 24 24" style="enable-background:new 0 0 24 24;" xml:space="preserve">
<title>warehouse-package-search</title>
<g>
	<path d="M1.713,18C0.764,17.993,0,17.219,0.005,16.274V1.721C0,0.78,0.763,0.007,1.708,0h16.091
		c0.462,0.003,0.892,0.184,1.214,0.51c0.322,0.326,0.498,0.758,0.495,1.216V6c0,0.414-0.336,0.75-0.75,0.75s-0.75-0.336-0.75-0.75
		V1.721c0-0.062-0.021-0.116-0.062-0.157C17.905,1.522,17.853,1.5,17.794,1.5h-4.282l-0.007,4.761c0,0.005-0.001,0.027-0.001,0.033
		c-0.021,0.478-0.322,0.905-0.765,1.086c-0.172,0.078-0.37,0.12-0.575,0.12c-0.216,0-0.434-0.049-0.63-0.142L9.756,6.489
		L7.994,7.353C7.788,7.451,7.575,7.499,7.355,7.499c-0.208,0-0.409-0.043-0.599-0.128C6.331,7.197,6.035,6.772,6.014,6.293
		L6.013,1.5h-4.3C1.601,1.501,1.505,1.6,1.505,1.716v14.563C1.505,16.401,1.6,16.499,1.719,16.5h4.286c0.414,0,0.75,0.336,0.75,0.75
		S6.419,18,6.005,18H1.713z M9.755,4.904c0.114,0,0.227,0.026,0.329,0.076l1.921,0.938L12.012,1.5H7.513v4.411l1.912-0.93
		C9.527,4.931,9.642,4.904,9.755,4.904z"/>
	<path d="M23.255,24c-0.2,0-0.389-0.078-0.53-0.22l-3.509-3.509c-1.195,0.956-2.677,1.479-4.21,1.479c-3.722,0-6.75-3.028-6.75-6.75
		s3.028-6.75,6.75-6.75s6.75,3.028,6.75,6.75c0,1.534-0.523,3.015-1.479,4.21l3.509,3.509c0.292,0.292,0.292,0.768,0,1.061
		C23.644,23.922,23.455,24,23.255,24z M15.005,9.75c-2.895,0-5.25,2.355-5.25,5.25c0,2.895,2.355,5.25,5.25,5.25
		c2.895,0,5.25-2.355,5.25-5.25C20.255,12.105,17.9,9.75,15.005,9.75z"/>
	<path d="M18.005,17.25c-0.414,0-0.75-0.336-0.75-0.75v-3.75c0-0.414,0.336-0.75,0.75-0.75s0.75,0.336,0.75,0.75v3.75
		C18.755,16.914,18.419,17.25,18.005,17.25z"/>
	<path d="M15.005,17.25c-0.414,0-0.75-0.336-0.75-0.75v-3.75c0-0.414,0.336-0.75,0.75-0.75s0.75,0.336,0.75,0.75v3.75
		C15.755,16.914,15.419,17.25,15.005,17.25z"/>
	<path d="M12.005,14.25c-0.414,0-0.75-0.336-0.75-0.75v-0.75c0-0.414,0.336-0.75,0.75-0.75s0.75,0.336,0.75,0.75v0.75
		C12.755,13.914,12.419,14.25,12.005,14.25z"/>
	<path d="M12.005,17.25c-0.414,0-0.75-0.336-0.75-0.75v-0.75c0-0.414,0.336-0.75,0.75-0.75s0.75,0.336,0.75,0.75v0.75
		C12.755,16.914,12.419,17.25,12.005,17.25z"/>
</g>
</svg>
