<svg xmlns="http://www.w3.org/2000/svg" viewBox="0 0 24 24"><path d="M1.713 18a1.72 1.72 0 01-1.708-1.726V1.721A1.717 1.717 0 011.708 0h16.091c.462.003.892.184 1.214.51.322.326.498.758.495 1.216V6a.75.75 0 01-1.5 0V1.721a.216.216 0 00-.214-.221h-4.282l-.007 4.761-.001.033a1.237 1.237 0 01-.765 1.086c-.172.078-.37.12-.575.12a1.48 1.48 0 01-.63-.142l-1.778-.869-1.762.864a1.47 1.47 0 01-1.238.018 1.224 1.224 0 01-.742-1.078L6.013 1.5h-4.3a.217.217 0 00-.208.216v14.563c0 .122.095.22.214.221h4.286a.75.75 0 010 1.5H1.713zM9.755 4.904c.114 0 .227.026.329.076l1.921.938.007-4.418H7.513v4.411l1.912-.93a.757.757 0 01.33-.077z"/><path d="M23.255 24a.743.743 0 01-.53-.22l-3.509-3.509a6.736 6.736 0 01-4.21 1.479c-3.722 0-6.75-3.028-6.75-6.75s3.028-6.75 6.75-6.75 6.75 3.028 6.75 6.75a6.734 6.734 0 01-1.479 4.21l3.509 3.509A.752.752 0 0123.255 24zm-8.25-14.25A5.256 5.256 0 009.755 15a5.256 5.256 0 005.25 5.25 5.256 5.256 0 005.25-5.25 5.256 5.256 0 00-5.25-5.25z"/><path d="M18.005 17.25a.75.75 0 01-.75-.75v-3.75a.75.75 0 011.5 0v3.75a.75.75 0 01-.75.75zm-3 0a.75.75 0 01-.75-.75v-3.75a.75.75 0 011.5 0v3.75a.75.75 0 01-.75.75zm-3-3a.75.75 0 01-.75-.75v-.75a.75.75 0 011.5 0v.75a.75.75 0 01-.75.75zm0 3a.75.75 0 01-.75-.75v-.75a.75.75 0 011.5 0v.75a.75.75 0 01-.75.75z"/></svg>