<svg xmlns="http://www.w3.org/2000/svg" viewBox="0 0 24 24"><path d="M.756 17.25a.75.75 0 010-1.5h15.958c.37 0 .69-.275.744-.639l1.864-12.445A2.237 2.237 0 0121.547.75h1.709a.75.75 0 010 1.5h-1.709a.745.745 0 00-.741.639l-1.864 12.446a2.265 2.265 0 01-2.225 1.916H.756z"/><path d="M9.006 14.25c-.264 0-.522-.072-.75-.205a1.478 1.478 0 01-.75.205h-4.5c-.827 0-1.5-.673-1.5-1.5v-4.5c0-.827.673-1.5 1.5-1.5h4.5v-1.5c0-.827.673-1.5 1.5-1.5h6c.827 0 1.5.673 1.5 1.5v7.5c0 .827-.673 1.5-1.5 1.5h-6zm0-1.5h6v-7.5h-6v7.5zm-6 0h4.5v-4.5h-4.5v4.5zm1.125 10.5c-1.447 0-2.625-1.177-2.625-2.625S2.683 18 4.131 18s2.625 1.177 2.625 2.625-1.178 2.625-2.625 2.625zm0-3.75a1.126 1.126 0 101.125 1.125c0-.62-.505-1.125-1.125-1.125zm10.5 3.75c-1.448 0-2.625-1.177-2.625-2.625S13.183 18 14.631 18s2.625 1.177 2.625 2.625-1.178 2.625-2.625 2.625zm0-3.75c-.62 0-1.125.505-1.125 1.125s.505 1.125 1.125 1.125 1.125-.505 1.125-1.125-.505-1.125-1.125-1.125z"/></svg>